<svg width="688" height="200" viewBox="0 0 688 200" fill="none" xmlns="http://www.w3.org/2000/svg">
<g clip-path="url(#clip0_61_860)">
<path fill-rule="evenodd" clip-rule="evenodd" d="M122 167.262C103.708 187.374 77.3285 200 48 200C-7.22847 200 -52 155.228 -52 100C-52 44.7715 -7.22847 0 48 0C77.3285 0 103.708 12.6257 122 32.7383C140.292 12.6257 166.672 0 196 0C225.328 0 251.708 12.6257 270 32.7383C288.292 12.6257 314.672 0 344 0C373.328 0 399.708 12.6257 418 32.7383C436.292 12.6257 462.672 0 492 0C521.328 0 547.708 12.6257 566 32.7383C584.292 12.6257 610.672 0 640 0C695.228 0 740 44.7715 740 100C740 155.228 695.228 200 640 200C610.672 200 584.292 187.374 566 167.262C547.708 187.374 521.328 200 492 200C462.672 200 436.292 187.374 418 167.262C399.708 187.374 373.328 200 344 200C314.672 200 288.292 187.374 270 167.262C251.708 187.374 225.328 200 196 200C166.672 200 140.292 187.374 122 167.262Z" fill="#E6C381"/>
</g>
<defs>
<clipPath id="clip0_61_860">
<rect width="688" height="200" fill="white"/>
</clipPath>
</defs>
</svg>
