<svg width="200" height="200" viewBox="0 0 200 200" fill="none" xmlns="http://www.w3.org/2000/svg">
<g clip-path="url(#clip0_53_369)">
<path d="M94.1801 97.864C90.1041 101.912 88.4561 109.52 94.1801 111.764C97.5681 113.088 100.636 108.004 101.896 104.048" stroke="#F8F9F8" stroke-width="1.5" stroke-miterlimit="22.9256" stroke-linecap="round" stroke-linejoin="round"/>
<path d="M99.4917 98.592C101.312 105.636 106.684 110.528 111.504 108.56C115.752 106.828 111.088 98.592 106.628 95.68" stroke="#F8F9F8" stroke-width="1.5" stroke-miterlimit="22.9256" stroke-linecap="round" stroke-linejoin="round"/>
<path d="M107.84 92.144C112.892 92.368 119.548 93.14 119.976 98.34C120.244 101.54 113.676 101.356 110.4 99.348" stroke="#F8F9F8" stroke-width="1.5" stroke-miterlimit="22.9256" stroke-linecap="round" stroke-linejoin="round"/>
<path d="M107.384 87.904C111.584 85.92 119.232 82.944 120.296 87.332C120.912 89.876 116.58 91.92 113.584 92.788" stroke="#F8F9F8" stroke-width="1.5" stroke-miterlimit="22.9256" stroke-linecap="round" stroke-linejoin="round"/>
<path d="M105.116 84.704C107.74 80.848 111.224 72.244 115.9 74.808C119.856 76.98 113.2 84.82 110.092 86.716" stroke="#F8F9F8" stroke-width="1.5" stroke-miterlimit="22.9256" stroke-linecap="round" stroke-linejoin="round"/>
<path d="M99.9717 84.66C99.6197 79.484 101.668 71.268 107.652 71.22C109.692 71.204 110.92 74.488 110.176 76.788" stroke="#F8F9F8" stroke-width="1.5" stroke-miterlimit="22.9256" stroke-linecap="round" stroke-linejoin="round"/>
<path d="M100.848 77.552C100.36 72.972 96.9758 67.896 94.3518 69.624C89.8798 72.568 93.6278 81.132 95.7758 85.628C93.1238 80.072 85.8638 73.804 82.0358 77.5C78.2998 81.108 85.9078 87.352 90.9998 90.24C86.3358 87.084 77.4718 82.884 75.7478 87.556C74.7158 90.36 77.6998 92.036 80.5238 92.592" stroke="#F8F9F8" stroke-width="1.5" stroke-miterlimit="22.9256" stroke-linecap="round" stroke-linejoin="round"/>
<path d="M91.8398 92.184C84.8238 89.664 80.7478 91.324 77.2798 95.236" stroke="#F8F9F8" stroke-width="1.5" stroke-miterlimit="22.9256" stroke-linecap="round" stroke-linejoin="round"/>
<path d="M93.1999 96.388C89.2119 99.052 84.7759 100.596 80.1519 100.832" stroke="#F8F9F8" stroke-width="1.5" stroke-miterlimit="22.9256" stroke-linecap="round" stroke-linejoin="round"/>
<path d="M84.0601 108.028C87.2121 107.056 89.3201 105.04 91.1161 102.712" stroke="#F8F9F8" stroke-width="1.5" stroke-miterlimit="22.9256" stroke-linecap="round" stroke-linejoin="round"/>
<path fill-rule="evenodd" clip-rule="evenodd" d="M91.8399 92.184C93.0319 87.652 100.456 84.952 104.796 86.72C107.892 87.984 106.816 94.084 102.244 96.424C96.1519 99.532 90.8879 95.804 91.8399 92.184Z" stroke="#F8F9F8" stroke-width="1.5" stroke-miterlimit="22.9256" stroke-linecap="round" stroke-linejoin="round"/>
<path fill-rule="evenodd" clip-rule="evenodd" d="M59.0517 77.7841C58.3997 71.3801 66.0997 69.4761 68.9957 72.6641C67.7477 69.3961 71.0837 66.404 74.6917 69.092C72.8277 66.84 73.5757 60.92 75.5597 63.492C82.4397 72.408 78.0197 83.756 70.8277 87.824C63.3437 92.06 51.4157 91.444 46.8717 81.98C45.3517 78.816 49.7357 78.4761 50.9397 79.1961C51.6557 76.7601 56.8437 75.9041 59.0517 77.7841Z" stroke="#F8F9F8" stroke-width="1.5" stroke-miterlimit="22.9256" stroke-linecap="round" stroke-linejoin="round"/>
<path d="M73.764 64.04C72.332 62.908 71.188 63.108 70.428 65.112C67.272 61.276 64.352 61.364 61.732 66.368C58.008 65.008 55.552 66.18 54.292 69.752C51.172 69.704 49.384 71.824 50.208 75.14C47.244 75.924 46.256 76.792 46.876 79.82" stroke="#F8F9F8" stroke-width="1.5" stroke-miterlimit="22.9256" stroke-linecap="round" stroke-linejoin="round"/>
<path fill-rule="evenodd" clip-rule="evenodd" d="M151.748 40.66C157.18 37.208 162.332 43.232 160.784 47.252C163.144 44.672 167.316 46.308 166.532 50.74C167.708 48.064 173.336 46.076 171.924 49.004C167.044 59.152 154.916 60.292 148.056 55.692C140.916 50.9 136.112 39.964 142.536 31.656C144.68 28.88 146.952 32.644 146.848 34.044C149.344 33.588 152.44 37.844 151.748 40.66Z" stroke="#F8F9F8" stroke-width="1.5" stroke-miterlimit="22.9256" stroke-linecap="round" stroke-linejoin="round"/>
<path d="M170.632 47.644C171.004 45.856 170.308 44.924 168.176 45.144C170.188 40.6 168.8 38.028 163.152 37.936C162.696 33.996 160.548 32.324 156.792 32.804C155.436 29.992 152.736 29.348 150.144 31.568C148.112 29.272 146.896 28.776 144.468 30.688" stroke="#F8F9F8" stroke-width="1.5" stroke-miterlimit="22.9256" stroke-linecap="round" stroke-linejoin="round"/>
<path fill-rule="evenodd" clip-rule="evenodd" d="M65.7238 11.712C67.5638 5.54804 75.4078 6.72004 76.8678 10.768C76.9638 7.27204 81.1878 5.77604 83.4958 9.63604C82.6318 6.84404 85.5758 1.65604 86.4358 4.79204C89.3998 15.652 80.9878 24.464 72.7918 25.484C64.2558 26.548 53.4638 21.436 52.8678 10.952C52.6678 7.44804 56.8478 8.80404 57.6878 9.92804C59.2758 7.94804 64.3998 9.13204 65.7238 11.712Z" stroke="#F8F9F8" stroke-width="1.5" stroke-miterlimit="22.9256" stroke-linecap="round" stroke-linejoin="round"/>
<path d="M84.5639 4.61202C83.6719 3.01602 82.5359 2.76802 81.0719 4.33202C79.6159 -0.419983 76.8799 -1.45198 72.5519 2.18002C69.6279 -0.495983 66.9079 -0.347983 64.3839 2.47202C61.5199 1.24002 59.0599 2.52002 58.5559 5.90002C55.5159 5.49602 54.2719 5.92002 53.6919 8.95602" stroke="#F8F9F8" stroke-width="1.5" stroke-miterlimit="22.9256" stroke-linecap="round" stroke-linejoin="round"/>
<path d="M96.256 52.024C100.64 54.124 104.076 59.744 100.124 63.132C97.788 65.136 93.92 61.924 91.812 59.112" stroke="#F8F9F8" stroke-width="1.5" stroke-miterlimit="22.9256" stroke-linecap="round" stroke-linejoin="round"/>
<path d="M91.42 55.352C91.928 61.492 89.784 65.624 85.388 65.392C81.508 65.192 82.2559 58.328 85.0159 54.76" stroke="#F8F9F8" stroke-width="1.5" stroke-miterlimit="22.9256" stroke-linecap="round" stroke-linejoin="round"/>
<path d="M82.6719 51.696C78.6999 53.28 74.6639 55.308 75.7679 59.584C76.4479 62.212 81.4399 60.036 83.4999 57.52" stroke="#F8F9F8" stroke-width="1.5" stroke-miterlimit="22.9256" stroke-linecap="round" stroke-linejoin="round"/>
<path d="M80.436 47.544C76.528 47.128 72.08 47.072 72.452 50.876C72.664 53.08 76.644 53.396 79.28 53.256" stroke="#F8F9F8" stroke-width="1.5" stroke-miterlimit="22.9256" stroke-linecap="round" stroke-linejoin="round"/>
<path d="M82.8758 43.776C79.7038 41.424 75.4998 36.288 72.4758 39.64C69.9198 42.476 77.4198 46.892 80.4318 47.544" stroke="#F8F9F8" stroke-width="1.5" stroke-miterlimit="22.9256" stroke-linecap="round" stroke-linejoin="round"/>
<path d="M86.816 41.932C85.66 37.696 82.868 32.852 78.072 34.476C76.44 35.028 76.34 37.908 77.576 39.54" stroke="#F8F9F8" stroke-width="1.5" stroke-miterlimit="22.9256" stroke-linecap="round" stroke-linejoin="round"/>
<path d="M85.2481 38.012C84.3681 34.216 85.6801 28.852 88.2561 29.5C92.6521 30.604 92.1881 37.072 91.7201 41.264C92.2921 36.084 96.2081 30.48 100.296 32.368C104.284 34.208 100.848 40.228 97.5801 43.956C100.432 40.132 105.44 35.4 108.116 38.656C109.724 40.608 107.804 42.776 105.704 44.008" stroke="#F8F9F8" stroke-width="1.5" stroke-miterlimit="22.9256" stroke-linecap="round" stroke-linejoin="round"/>
<path d="M96.5439 46.832C101.452 42.868 105.608 43.296 109.468 45.456" stroke="#F8F9F8" stroke-width="1.5" stroke-miterlimit="22.9256" stroke-linecap="round" stroke-linejoin="round"/>
<path d="M97.1201 50.752C101.048 51.772 105.496 51.404 109.256 50.304" stroke="#F8F9F8" stroke-width="1.5" stroke-miterlimit="22.9256" stroke-linecap="round" stroke-linejoin="round"/>
<path d="M108.644 57.34C105.852 57.444 102.136 56.404 100.052 55.044" stroke="#F8F9F8" stroke-width="1.5" stroke-miterlimit="22.9256" stroke-linecap="round" stroke-linejoin="round"/>
<path fill-rule="evenodd" clip-rule="evenodd" d="M96.5436 46.832C94.3276 43.54 87.6436 43.452 84.6676 46.072C82.5436 47.94 85.1037 52.52 89.4077 53.116C95.1437 53.908 98.3116 49.46 96.5436 46.832Z" stroke="#F8F9F8" stroke-width="1.5" stroke-miterlimit="22.9256" stroke-linecap="round" stroke-linejoin="round"/>
<path fill-rule="evenodd" clip-rule="evenodd" d="M118.544 61.336C111.052 59.164 103.424 62.172 105.304 66.612C107.3 71.34 114.924 73.668 119.976 66.764C116.64 72.592 119.208 76.784 124.724 76.988C127.044 77.076 129.46 74.632 128.908 71.024C130.804 75.952 140.464 73.732 141.004 70.144C141.7 65.516 134.424 65.928 129.84 64.768C135.976 65.388 144.964 65.252 144.288 60.252C143.6 55.18 133.228 55.824 129.016 58.66C131.488 54.6 135.784 47.936 132.26 44.724C129.212 41.948 124.04 47.896 123.224 51.788C123.08 48.528 120.068 42.424 116.988 44.024C110.268 47.512 115.032 57.692 118.544 61.336Z" stroke="#F8F9F8" stroke-width="1.5" stroke-miterlimit="22.9256" stroke-linecap="round" stroke-linejoin="round"/>
<path d="M124.028 65.54C126.272 65.54 128.092 63.9981 128.092 62.096C128.092 60.194 126.272 58.652 124.028 58.652C121.783 58.652 119.964 60.194 119.964 62.096C119.964 63.9981 121.783 65.54 124.028 65.54Z" stroke="#F8F9F8" stroke-width="1.5" stroke-miterlimit="22.9256" stroke-linecap="round" stroke-linejoin="round"/>
<path fill-rule="evenodd" clip-rule="evenodd" d="M159.364 78.964C165.784 77.048 172.356 79.58 170.772 83.404C169.088 87.476 162.556 89.528 158.172 83.632C161.076 88.612 158.9 92.232 154.164 92.444C152.172 92.536 150.08 90.456 150.532 87.352C148.94 91.596 140.628 89.752 140.14 86.676C139.508 82.708 145.76 83.012 149.688 81.988C144.428 82.556 136.708 82.504 137.256 78.204C137.812 73.844 146.724 74.328 150.36 76.736C148.208 73.268 144.472 67.572 147.476 64.792C150.076 62.388 154.556 67.46 155.284 70.796C155.384 67.996 157.932 62.736 160.588 64.088C166.38 67.04 162.36 75.812 159.364 78.964Z" stroke="#F8F9F8" stroke-width="1.5" stroke-miterlimit="22.9256" stroke-linecap="round" stroke-linejoin="round"/>
<path d="M154.686 82.6065C152.76 82.6216 151.187 81.3105 151.175 79.6781C151.162 78.0457 152.714 76.7102 154.64 76.6951C156.567 76.6801 158.139 77.9912 158.152 79.6236C158.165 81.256 156.613 82.5915 154.686 82.6065Z" stroke="#F8F9F8" stroke-width="1.5" stroke-miterlimit="22.9256" stroke-linecap="round" stroke-linejoin="round"/>
<path fill-rule="evenodd" clip-rule="evenodd" d="M120.672 21.928C128.452 21.316 135.312 25.808 132.572 29.776C129.656 34 121.72 34.736 118.172 26.952C120.26 33.332 116.892 36.916 111.452 36.004C109.16 35.62 107.288 32.736 108.56 29.316C105.708 33.756 96.696 29.624 96.892 26C97.148 21.332 104.192 23.204 108.916 23C102.784 22.364 94.008 20.408 95.684 15.652C97.384 10.824 107.412 13.556 110.964 17.188C109.364 12.708 106.504 5.31204 110.608 2.88004C114.156 0.780044 118.016 7.65204 118.024 11.628C118.824 8.46404 123.012 3.09604 125.704 5.28804C131.58 10.068 124.852 19.072 120.672 21.928Z" stroke="#F8F9F8" stroke-width="1.5" stroke-miterlimit="22.9256" stroke-linecap="round" stroke-linejoin="round"/>
<path d="M114.453 24.929C112.256 24.4745 110.787 22.5968 111.172 20.7351C111.557 18.8734 113.651 17.7326 115.848 18.1872C118.045 18.6418 119.514 20.5195 119.129 22.3812C118.744 24.2429 116.651 25.3836 114.453 24.929Z" stroke="#F8F9F8" stroke-width="1.5" stroke-miterlimit="22.9256" stroke-linecap="round" stroke-linejoin="round"/>
<path fill-rule="evenodd" clip-rule="evenodd" d="M37.452 48.552C30.104 51.176 22.304 48.636 23.912 44.088C25.62 39.252 33.088 36.464 38.548 43.048C34.864 37.436 37.176 33.096 42.668 32.556C44.98 32.328 47.54 34.62 47.208 38.256C48.8 33.22 58.58 34.852 59.336 38.4C60.312 42.976 53.024 43.008 48.516 44.44C54.6 43.452 63.584 43.044 63.212 48.076C62.832 53.18 52.44 53.164 48.064 50.588C50.776 54.492 55.472 60.884 52.148 64.304C49.272 67.26 43.748 61.636 42.7 57.8C42.756 61.064 40.116 67.34 36.944 65.928C30.024 62.852 34.164 52.404 37.452 48.552Z" stroke="#F8F9F8" stroke-width="1.5" stroke-miterlimit="22.9256" stroke-linecap="round" stroke-linejoin="round"/>
<path d="M42.6663 44.0284C44.9061 43.8924 46.8153 45.3204 46.9306 47.218C47.0459 49.1156 45.3236 50.7643 43.0838 50.9003C40.844 51.0364 38.9349 49.6084 38.8196 47.7108C38.7043 45.8132 40.4265 44.1645 42.6663 44.0284Z" stroke="#F8F9F8" stroke-width="1.5" stroke-miterlimit="22.9256" stroke-linecap="round" stroke-linejoin="round"/>
<path d="M147.536 123.248C152.275 123.248 156.116 120.454 156.116 117.008C156.116 113.562 152.275 110.768 147.536 110.768C142.797 110.768 138.956 113.562 138.956 117.008C138.956 120.454 142.797 123.248 147.536 123.248Z" stroke="#F8F9F8" stroke-width="1.5" stroke-miterlimit="22.9256" stroke-linecap="round" stroke-linejoin="round"/>
<path d="M152.436 111.884C154.704 107.908 160.232 104.424 159.236 99.96C158.516 96.728 151.952 96.256 149.428 98.4C147.144 100.336 149.168 105.752 147.536 110.768" stroke="#F8F9F8" stroke-width="1.5" stroke-miterlimit="22.9256" stroke-linecap="round" stroke-linejoin="round"/>
<path d="M143.272 111.592C141.46 108.084 141.556 102.4 137.84 101.072C133.624 99.568 123.308 100.952 125.024 105.084C125.988 107.4 132.94 105.5 139.736 114.4" stroke="#F8F9F8" stroke-width="1.5" stroke-miterlimit="22.9256" stroke-linecap="round" stroke-linejoin="round"/>
<path d="M137.84 101.072C140.784 99.848 143.868 98.78 148.608 99.648" stroke="#F8F9F8" stroke-width="1.5" stroke-miterlimit="22.9256" stroke-linecap="round" stroke-linejoin="round"/>
<path d="M159.352 100.876C161.392 101.384 163.68 101.3 165.468 102.408C166.58 103.1 166.552 104.832 167.372 105.852C168.476 107.224 171.452 108.368 170.376 110.688" stroke="#F8F9F8" stroke-width="1.5" stroke-miterlimit="22.9256" stroke-linecap="round" stroke-linejoin="round"/>
<path d="M156.064 116.324C160.836 114.444 165.62 108.772 170.376 110.688C174.064 112.172 174.964 120.52 171.548 122.56C166.82 125.38 162.388 119.92 155.276 119.7" stroke="#F8F9F8" stroke-width="1.5" stroke-miterlimit="22.9256" stroke-linecap="round" stroke-linejoin="round"/>
<path d="M153.44 121.536C158.232 123.108 165.404 127.524 164.764 130.012C163.42 135.2 147.636 134.88 146 132.648C144.852 131.08 145.344 126.2 145.016 122.976" stroke="#F8F9F8" stroke-width="1.5" stroke-miterlimit="22.9256" stroke-linecap="round" stroke-linejoin="round"/>
<path d="M154.22 134.172C153.704 130.94 152.732 127.528 149.276 123.12" stroke="#F8F9F8" stroke-width="1.5" stroke-miterlimit="22.9256" stroke-linecap="round" stroke-linejoin="round"/>
<path d="M164.284 131.012C167.744 131.1 170.136 128.688 171.048 122.828" stroke="#F8F9F8" stroke-width="1.5" stroke-miterlimit="22.9256" stroke-linecap="round" stroke-linejoin="round"/>
<path d="M145.58 131.712C141.132 130.324 133.768 132.532 132.616 130.22C130.724 126.42 136.988 122.348 139.172 118.416" stroke="#F8F9F8" stroke-width="1.5" stroke-miterlimit="22.9256" stroke-linecap="round" stroke-linejoin="round"/>
<path d="M138.164 131.3C138.272 127.908 139.704 124.736 141.856 121.684" stroke="#F8F9F8" stroke-width="1.5" stroke-miterlimit="22.9256" stroke-linecap="round" stroke-linejoin="round"/>
<path d="M132.336 128.032C128.78 126.316 123.656 124.304 123.384 120.384C123.104 116.344 126.572 111.64 130.46 110.5C133.704 109.544 135.852 114.2 139.128 115.76" stroke="#F8F9F8" stroke-width="1.5" stroke-miterlimit="22.9256" stroke-linecap="round" stroke-linejoin="round"/>
<path d="M125.636 105.772C123.912 109.244 123.504 113.156 123.82 117.308" stroke="#F8F9F8" stroke-width="1.5" stroke-miterlimit="22.9256" stroke-linecap="round" stroke-linejoin="round"/>
<path d="M130.184 100.768C128.5 100.36 126.772 97.692 128.008 96.864C130.008 95.528 134.6 97.4 135.024 100.536" stroke="#F8F9F8" stroke-width="1.5" stroke-miterlimit="22.9256" stroke-linecap="round" stroke-linejoin="round"/>
<path d="M128.36 99.488C125.388 100.284 122.416 100.504 119.444 99.824" stroke="#F8F9F8" stroke-width="1.5" stroke-miterlimit="22.9256" stroke-linecap="round" stroke-linejoin="round"/>
<path d="M116.132 100.808C114.636 103 114.184 107.848 116.632 109.212C119.38 110.74 123.384 108.808 125.512 106.028" stroke="#F8F9F8" stroke-width="1.5" stroke-miterlimit="22.9256" stroke-linecap="round" stroke-linejoin="round"/>
<path d="M127.588 97.716C126.052 94.464 121.56 91.14 122.972 87.96C124.384 84.776 130.392 83.336 132.856 85.856C135.32 88.372 132.056 93.168 131.656 96.828" stroke="#F8F9F8" stroke-width="1.5" stroke-miterlimit="22.9256" stroke-linecap="round" stroke-linejoin="round"/>
<path d="M133.76 88.66C135.688 87.152 137.908 87.548 139.36 88.724C140.68 89.792 140.852 92.264 140.06 93.76C138.872 96.012 136.116 96.976 134.144 98.584" stroke="#F8F9F8" stroke-width="1.5" stroke-miterlimit="22.9256" stroke-linecap="round" stroke-linejoin="round"/>
<path d="M139.18 94.968C143.504 93.508 145.276 94.972 144.512 99.352" stroke="#F8F9F8" stroke-width="1.5" stroke-miterlimit="22.9256" stroke-linecap="round" stroke-linejoin="round"/>
<path d="M123.524 91.8C121.96 90.536 119.9 89.896 118.336 90.66" stroke="#F8F9F8" stroke-width="1.5" stroke-miterlimit="22.9256" stroke-linecap="round" stroke-linejoin="round"/>
<path d="M123.88 122.168C123.472 122.932 122.848 123.364 121.848 123.196C123.7 124.476 124.616 127.352 123.112 128.176C120.32 129.704 118.16 129.62 116.108 123.532C117.476 127.716 117.52 130.996 114.844 132.9C113.776 133.66 112.1 131.508 111.976 130.2C111.744 127.816 111.9 125.816 113.916 123.28C111.896 126.292 110.364 127.524 108.008 127.244C105.996 127.008 103.756 124.012 104.632 122.184C105.54 120.284 108.724 121.228 110.876 121.256C108.512 121.064 104.788 116.688 106.66 115.008C108.592 113.276 112.532 116.704 113.324 119.06C112.616 116.14 113.844 111.936 116.868 112.308C118.272 112.48 119.436 114.364 119.316 115.768C119.164 117.556 117.236 118.696 116.196 120.156C118.552 117.508 120.996 116.56 123.576 118.168" stroke="#F8F9F8" stroke-width="1.5" stroke-miterlimit="22.9256" stroke-linecap="round" stroke-linejoin="round"/>
<path d="M114.732 122.104C115.14 122.104 115.472 121.767 115.472 121.352C115.472 120.937 115.14 120.6 114.732 120.6C114.323 120.6 113.992 120.937 113.992 121.352C113.992 121.767 114.323 122.104 114.732 122.104Z" stroke="#F8F9F8" stroke-width="1.5" stroke-miterlimit="22.9256" stroke-linecap="round" stroke-linejoin="round"/>
<path d="M51.1557 87.244C49.5077 90.976 49.7717 94.476 52.3837 97.696C49.3557 95.54 44.7757 93.072 42.7317 95.648C40.8517 98.016 47.7997 99.78 50.9117 99.548C46.6277 100.804 41.3157 101.896 41.5157 105.62C41.6477 108.076 47.7597 106.816 50.2077 104.152C49.5717 109.028 51.1277 110.928 53.6597 110.928C56.0837 110.928 56.8157 107.24 56.2837 104.152C58.6037 107.452 65.4277 108.58 67.4677 105.428C69.2597 102.664 63.7397 100.164 61.2037 100.124C64.0797 100.016 68.0517 96.616 66.3797 95.392C63.7637 93.48 59.7757 92.58 56.6637 95.968C57.9517 94.06 58.2357 92.068 57.4757 89.988" stroke="#F8F9F8" stroke-width="1.5" stroke-miterlimit="22.9256" stroke-linecap="round" stroke-linejoin="round"/>
<path fill-rule="evenodd" clip-rule="evenodd" d="M51.9117 101.392C51.2637 100.776 52.0677 99.4281 52.7357 98.8321C53.3677 98.2641 54.6317 97.8121 55.2477 98.3961C55.8077 98.9241 55.1917 100.104 54.6197 100.62C53.9237 101.248 52.5917 102.04 51.9117 101.392Z" stroke="#F8F9F8" stroke-width="1.5" stroke-miterlimit="22.9256" stroke-linecap="round" stroke-linejoin="round"/>
<path d="M50.0198 73.276C48.8398 72.844 47.6158 73.008 46.3518 73.596C47.8478 71.028 49.0758 66.16 46.5238 65.9C40.3598 65.268 38.2918 69.904 40.2638 74.696C36.9358 72.128 29.8998 70.436 28.7598 74.104C27.6358 77.728 33.7678 80.332 38.7398 79.6C35.9158 82.836 35.9918 87.7 38.8238 89.156C41.4318 90.496 44.1358 88.984 44.8318 82.728C44.3638 88.788 49.5118 91.8 49.8198 86.104" stroke="#F8F9F8" stroke-width="1.5" stroke-miterlimit="22.9256" stroke-linecap="round" stroke-linejoin="round"/>
<path d="M32.78 79.032C28.268 79.532 27.9799 82.428 29.3079 84.264C30.8239 86.352 33.736 86.852 36.756 83.796" stroke="#F8F9F8" stroke-width="1.5" stroke-miterlimit="22.9256" stroke-linecap="round" stroke-linejoin="round"/>
<path d="M31.948 85.92C29.96 87.608 29.196 89.852 29.692 92.668C28.416 89.3 25.632 84.632 23.58 86.628C21.36 88.788 24.192 93.728 27.04 95.248C23.564 94.888 16.068 93.188 17.796 101.024C18.812 105.62 22.888 106.172 28.44 98.708C25.352 102.308 25.26 106.692 28.072 107.988C30.676 109.188 32.224 104.928 32.268 100.476C32.572 103.8 35.42 106.172 37.496 105.116C40.136 103.776 39.816 100.62 35.508 98.12C37.904 98.576 40.268 98.692 42.436 96.656" stroke="#F8F9F8" stroke-width="1.5" stroke-miterlimit="22.9256" stroke-linecap="round" stroke-linejoin="round"/>
<path d="M38.8237 89.156C38.8437 90.232 38.5917 91.42 37.3677 91.88C38.9797 91.192 41.4877 90.456 43.3477 91.208C44.4517 91.652 44.6197 93.468 44.2477 94.66" stroke="#F8F9F8" stroke-width="1.5" stroke-miterlimit="22.9256" stroke-linecap="round" stroke-linejoin="round"/>
<path fill-rule="evenodd" clip-rule="evenodd" d="M28.9037 96.944C28.6277 96.092 29.9797 95.296 30.8517 95.088C31.6797 94.892 33.0077 95.096 33.2677 95.908C33.5077 96.64 32.4037 97.38 31.6517 97.56C30.7397 97.776 29.1957 97.836 28.9037 96.944Z" stroke="#F8F9F8" stroke-width="1.5" stroke-miterlimit="22.9256" stroke-linecap="round" stroke-linejoin="round"/>
<path fill-rule="evenodd" clip-rule="evenodd" d="M40.7317 79.404C39.9357 78.984 40.3477 77.472 40.8277 76.712C41.2837 75.996 42.3797 75.216 43.1317 75.612C43.8117 75.972 43.5397 77.276 43.1277 77.924C42.6277 78.716 41.5597 79.84 40.7317 79.404Z" stroke="#F8F9F8" stroke-width="1.5" stroke-miterlimit="22.9256" stroke-linecap="round" stroke-linejoin="round"/>
<path fill-rule="evenodd" clip-rule="evenodd" d="M18.9677 72.656C19.1717 70.668 17.6637 69.056 16.0717 68.532C15.0877 68.208 14.6957 69.984 13.9517 70.704C13.3517 71.292 11.8077 71.564 12.1677 72.32C12.8197 73.688 14.4357 74.608 16.0717 74.66C13.3397 74.92 12.3157 75.988 11.5557 77.616C11.1557 78.472 13.3757 78.304 14.0637 78.952C14.5157 79.384 14.1717 80.768 14.7877 80.68C15.9797 80.512 16.3317 79.752 17.6317 78.452C16.3637 79.8 16.9077 83.2 18.5797 83.412C20.2037 83.62 21.1997 81.164 20.2517 78.788C21.2717 80.124 24.0037 79.74 24.8197 78.452C25.5637 77.28 24.7837 75.088 22.7597 74.828C24.2237 75.088 25.8077 71.352 24.4877 70.592C22.7837 69.616 20.2517 70.072 18.9677 72.656Z" stroke="#F8F9F8" stroke-width="1.5" stroke-miterlimit="22.9256" stroke-linecap="round" stroke-linejoin="round"/>
<path d="M19.2478 76.832C20.0475 76.832 20.6958 76.2715 20.6958 75.58C20.6958 74.8885 20.0475 74.328 19.2478 74.328C18.4481 74.328 17.7998 74.8885 17.7998 75.58C17.7998 76.2715 18.4481 76.832 19.2478 76.832Z" stroke="#F8F9F8" stroke-width="1.5" stroke-miterlimit="22.9256" stroke-linecap="round" stroke-linejoin="round"/>
<path fill-rule="evenodd" clip-rule="evenodd" d="M45.8278 18.188C45.6238 16.2 47.1318 14.588 48.7278 14.064C49.7078 13.74 50.0998 15.516 50.8438 16.24C51.4438 16.824 52.9878 17.096 52.6278 17.856C51.9758 19.224 50.3598 20.14 48.7278 20.196C51.4558 20.456 52.4798 21.52 53.2398 23.148C53.6398 24.008 51.4198 23.836 50.7318 24.488C50.2798 24.916 50.6238 26.3 50.0078 26.212C48.8158 26.048 48.4638 25.284 47.1638 23.984C48.4318 25.332 47.8878 28.732 46.2198 28.944C44.5918 29.152 43.5998 26.696 44.5478 24.32C43.5238 25.656 40.7918 25.276 39.9758 23.984C39.2318 22.812 40.0118 20.62 42.0398 20.364C40.5718 20.62 38.9878 16.884 40.3118 16.128C42.0118 15.148 44.5478 15.604 45.8278 18.188Z" stroke="#F8F9F8" stroke-width="1.5" stroke-miterlimit="22.9256" stroke-linecap="round" stroke-linejoin="round"/>
<path d="M45.552 22.368C46.3517 22.368 47 21.8075 47 21.116C47 20.4246 46.3517 19.864 45.552 19.864C44.7523 19.864 44.104 20.4246 44.104 21.116C44.104 21.8075 44.7523 22.368 45.552 22.368Z" stroke="#F8F9F8" stroke-width="1.5" stroke-miterlimit="22.9256" stroke-linecap="round" stroke-linejoin="round"/>
<path fill-rule="evenodd" clip-rule="evenodd" d="M182.884 95.172C183.088 97.16 181.58 98.772 179.988 99.296C179.004 99.62 178.612 97.844 177.868 97.12C177.268 96.536 175.724 96.264 176.084 95.508C176.736 94.136 178.352 93.22 179.988 93.164C177.256 92.904 176.236 91.84 175.472 90.212C175.072 89.352 177.292 89.524 177.98 88.872C178.432 88.444 178.088 87.06 178.704 87.148C179.896 87.312 180.252 88.076 181.548 89.376C180.284 88.028 180.824 84.628 182.496 84.416C184.12 84.208 185.116 86.664 184.168 89.04C185.188 87.704 187.92 88.084 188.736 89.376C189.48 90.548 188.7 92.74 186.676 92.996C188.144 92.74 189.724 96.476 188.404 97.232C186.7 98.212 184.168 97.756 182.884 95.172Z" stroke="#F8F9F8" stroke-width="1.5" stroke-miterlimit="22.9256" stroke-linecap="round" stroke-linejoin="round"/>
<path d="M183.164 93.496C183.964 93.496 184.612 92.9355 184.612 92.244C184.612 91.5525 183.964 90.992 183.164 90.992C182.364 90.992 181.716 91.5525 181.716 92.244C181.716 92.9355 182.364 93.496 183.164 93.496Z" stroke="#F8F9F8" stroke-width="1.5" stroke-miterlimit="22.9256" stroke-linecap="round" stroke-linejoin="round"/>
<path fill-rule="evenodd" clip-rule="evenodd" d="M169.236 93.928C169.068 92.292 170.308 90.968 171.624 90.536C172.432 90.268 172.752 91.732 173.364 92.324C173.86 92.804 175.128 93.028 174.832 93.652C174.296 94.78 172.968 95.532 171.624 95.58C173.868 95.792 174.712 96.668 175.336 98.008C175.668 98.716 173.84 98.576 173.272 99.112C172.9 99.464 173.184 100.604 172.676 100.532C171.696 100.396 171.404 99.768 170.34 98.696C171.38 99.804 170.932 102.604 169.56 102.78C168.22 102.948 167.404 100.928 168.184 98.972C167.34 100.072 165.096 99.76 164.42 98.696C163.812 97.732 164.452 95.932 166.12 95.716C164.912 95.932 163.608 92.856 164.696 92.232C166.1 91.428 168.184 91.804 169.236 93.928Z" stroke="#F8F9F8" stroke-width="1.5" stroke-miterlimit="22.9256" stroke-linecap="round" stroke-linejoin="round"/>
<path d="M169.008 97.368C169.666 97.368 170.2 96.906 170.2 96.336C170.2 95.7661 169.666 95.304 169.008 95.304C168.35 95.304 167.816 95.7661 167.816 96.336C167.816 96.906 168.35 97.368 169.008 97.368Z" stroke="#F8F9F8" stroke-width="1.5" stroke-miterlimit="22.9256" stroke-linecap="round" stroke-linejoin="round"/>
<path fill-rule="evenodd" clip-rule="evenodd" d="M12.8519 82.072C12.7959 80.24 5.93588 78.22 4.71188 80.544C4.37988 81.168 4.84788 81.96 4.79588 82.664C4.70788 83.832 3.81588 85.072 4.28788 86.144C6.08388 90.236 12.9199 84.196 12.8519 82.072Z" stroke="#F8F9F8" stroke-width="1.5" stroke-miterlimit="22.9256" stroke-linecap="round" stroke-linejoin="round"/>
<path fill-rule="evenodd" clip-rule="evenodd" d="M14.8321 95.608C14.9321 93.284 11.5041 91.712 9.18808 91.504C7.94008 91.392 8.11208 93.128 7.45608 94.196C7.10808 94.764 6.18008 95.652 6.24008 96.312C6.29208 96.932 6.95208 97.864 7.20008 98.432C7.86008 99.94 7.13208 102.38 8.74008 102.024C11.6201 101.384 14.7081 98.552 14.8321 95.608Z" stroke="#F8F9F8" stroke-width="1.5" stroke-miterlimit="22.9256" stroke-linecap="round" stroke-linejoin="round"/>
<path fill-rule="evenodd" clip-rule="evenodd" d="M177.58 109.624C176.792 112.288 177.544 116.184 179.92 117.624C181.752 118.732 184.496 117.828 185.1 115.776C185.404 114.74 184.44 113.472 184.408 112.84C184.388 112.396 185.344 112.34 185.364 111.892C185.388 111.32 184.528 110.96 184.528 110.388C184.528 109.524 186.48 106.56 183.132 106.76C181.052 106.884 178.168 107.628 177.58 109.624Z" stroke="#F8F9F8" stroke-width="1.5" stroke-miterlimit="22.9256" stroke-linecap="round" stroke-linejoin="round"/>
<path d="M177.58 109.624C175.36 110.348 173.84 111.724 172.972 113.688" stroke="#F8F9F8" stroke-width="1.5" stroke-miterlimit="22.9256" stroke-linecap="round" stroke-linejoin="round"/>
<path d="M173.668 116.916C175.32 116.972 176.716 116.32 177.916 115.136" stroke="#F8F9F8" stroke-width="1.5" stroke-miterlimit="22.9256" stroke-linecap="round" stroke-linejoin="round"/>
<path d="M177.58 109.624C174.888 106.776 171.06 105.068 166.544 104.044" stroke="#F8F9F8" stroke-width="1.5" stroke-miterlimit="22.9256" stroke-linecap="round" stroke-linejoin="round"/>
<path d="M135.476 131.324C134.232 135.332 135.268 137.592 138.872 137.884C135.652 138.748 132.616 141.996 134.404 143.636C136.336 145.412 140.184 143.424 141.552 140.344C142.708 141.96 143.12 144.6 145.016 145.2C147.112 145.868 150.108 145.26 151.384 143.468C153.952 139.864 147.496 138.832 145.628 138.668C148.112 137.708 149.476 136.192 149.256 133.88" stroke="#F8F9F8" stroke-width="1.5" stroke-miterlimit="22.9256" stroke-linecap="round" stroke-linejoin="round"/>
<path d="M139.544 131.572C140.252 132.232 140.568 133.42 140.604 134.98C140.376 133.784 140.852 132.536 142.168 131.228" stroke="#F8F9F8" stroke-width="1.5" stroke-miterlimit="22.9256" stroke-linecap="round" stroke-linejoin="round"/>
<path d="M142.408 138.72C143.108 138.72 143.676 138.21 143.676 137.58C143.676 136.95 143.108 136.44 142.408 136.44C141.707 136.44 141.14 136.95 141.14 137.58C141.14 138.21 141.707 138.72 142.408 138.72Z" stroke="#F8F9F8" stroke-width="1.5" stroke-miterlimit="22.9256" stroke-linecap="round" stroke-linejoin="round"/>
<path fill-rule="evenodd" clip-rule="evenodd" d="M79.3798 144.3C80.8038 143.38 83.1438 145.06 100.788 145.348C113.496 145.56 120.944 143.632 122.536 144.664C123.84 145.508 123.2 147.568 122.004 148.424C125.664 150.972 128.992 154.276 129.76 158.424C132.544 173.428 123.168 187.072 117.192 194.48C119.348 194.676 120.092 195.764 120.116 197.064C120.144 198.752 117.356 200.024 116.016 200H85.1838C83.1758 199.912 81.3958 199.28 81.4478 196.952C81.4838 195.328 83.4758 194.564 85.0438 194.592C78.8998 186.688 69.4998 172.568 72.5678 158.736C73.4638 154.696 76.0638 151.548 79.4238 148.392C77.9358 146.888 77.9718 145.208 79.3798 144.3Z" stroke="#F8F9F8" stroke-width="1.5" stroke-miterlimit="22.9256" stroke-linecap="round" stroke-linejoin="round"/>
<path d="M85.0439 194.592C96.2879 196.88 106.936 196.528 117.192 194.48" stroke="#F8F9F8" stroke-width="1.5" stroke-miterlimit="22.9256" stroke-linecap="round" stroke-linejoin="round"/>
<path d="M79.4238 148.392C94.2878 150.296 108.504 150.372 122.004 148.424" stroke="#F8F9F8" stroke-width="1.5" stroke-miterlimit="22.9256" stroke-linecap="round" stroke-linejoin="round"/>
<path d="M71.9639 87.108C86.7359 109.416 91.4999 127.328 96.2479 145.236" stroke="#F8F9F8" stroke-width="1.5" stroke-miterlimit="22.9256" stroke-linecap="round" stroke-linejoin="round"/>
<path d="M69.3521 88.572C82.4441 107.932 89.3201 126.668 93.2841 145.112" stroke="#F8F9F8" stroke-width="1.5" stroke-miterlimit="22.9256" stroke-linecap="round" stroke-linejoin="round"/>
<path d="M100.644 107.092C102.76 120.676 102.124 133.152 100.788 145.348" stroke="#F8F9F8" stroke-width="1.5" stroke-miterlimit="22.9256" stroke-linecap="round" stroke-linejoin="round"/>
<path d="M103.008 105.612C105.128 119.192 104.296 133.168 102.96 145.364" stroke="#F8F9F8" stroke-width="1.5" stroke-miterlimit="22.9256" stroke-linecap="round" stroke-linejoin="round"/>
<path d="M109.392 127.22C106.524 132.632 105.124 138.9 104.048 145.36" stroke="#F8F9F8" stroke-width="1.5" stroke-miterlimit="22.9256" stroke-linecap="round" stroke-linejoin="round"/>
<path d="M111.944 127.748C108.236 133.116 107.124 139.2 106.128 145.316" stroke="#F8F9F8" stroke-width="1.5" stroke-miterlimit="22.9256" stroke-linecap="round" stroke-linejoin="round"/>
<path d="M132.616 130.22C131.952 130.6 131.308 130.996 130.692 131.408M125.512 135.66C122.668 138.42 120.5 141.332 118.188 144.492" stroke="#F8F9F8" stroke-width="1.5" stroke-miterlimit="22.9256" stroke-linecap="round" stroke-linejoin="round"/>
<path d="M132.336 128.032C130.832 128.784 129.444 129.656 128.148 130.62M123.956 134.32C120.856 137.496 118.232 141.152 115.528 144.724" stroke="#F8F9F8" stroke-width="1.5" stroke-miterlimit="22.9256" stroke-linecap="round" stroke-linejoin="round"/>
<path d="M110.184 145.136C112.172 139.532 115.068 133.74 120.236 131.396C124.772 129.336 130.32 130.412 134.98 133.88" stroke="#F8F9F8" stroke-width="1.5" stroke-miterlimit="22.9256" stroke-linecap="round" stroke-linejoin="round"/>
<path d="M117.064 133.472C121.2 131.676 126.392 132.172 129.18 135.144C133.496 139.748 133.328 147.068 135.396 153.032C137.24 158.348 140.552 163.184 146.212 167.82" stroke="#F8F9F8" stroke-width="1.5" stroke-miterlimit="22.9256" stroke-linecap="round" stroke-linejoin="round"/>
<path d="M140.344 142.18C143.544 148.416 137.74 154.556 146.212 167.82C140.956 163.312 134.12 160.168 130.444 154.3C127.232 149.18 129.888 141.656 126.624 136.568C124.812 133.752 120.204 132.572 117.064 133.472" stroke="#F8F9F8" stroke-width="1.5" stroke-miterlimit="22.9256" stroke-linecap="round" stroke-linejoin="round"/>
<path d="M112.724 144.96C114.02 140.86 116.352 136.92 120.216 133.216" stroke="#F8F9F8" stroke-width="1.5" stroke-miterlimit="22.9256" stroke-linecap="round" stroke-linejoin="round"/>
<path d="M151.952 142.22C162.14 140.672 170.024 143.4 172.092 156.888C175.932 144.124 170.316 137.584 162.708 132.352" stroke="#F8F9F8" stroke-width="1.5" stroke-miterlimit="22.9256" stroke-linecap="round" stroke-linejoin="round"/>
<path d="M157.748 134.044C165.9 137.18 171.76 142.924 172.092 156.888" stroke="#F8F9F8" stroke-width="1.5" stroke-miterlimit="22.9256" stroke-linecap="round" stroke-linejoin="round"/>
<path d="M169.712 127.464C175.068 126.364 180.576 126.604 186.276 128.428C183.792 123.684 179.412 119.94 173.668 116.916" stroke="#F8F9F8" stroke-width="1.5" stroke-miterlimit="22.9256" stroke-linecap="round" stroke-linejoin="round"/>
<path d="M171.548 122.56C177.444 123.272 182.072 125.364 185.904 128.312" stroke="#F8F9F8" stroke-width="1.5" stroke-miterlimit="22.9256" stroke-linecap="round" stroke-linejoin="round"/>
<path d="M144.324 95.7C152.028 95.764 181.44 87.584 195.848 71.068C185.14 73.412 174.56 70.772 162.496 73.904" stroke="#F8F9F8" stroke-width="1.5" stroke-miterlimit="22.9256" stroke-linecap="round" stroke-linejoin="round"/>
<path d="M170.288 80.472C179.588 78.74 187.86 75.156 195.848 71.068" stroke="#F8F9F8" stroke-width="1.5" stroke-miterlimit="22.9256" stroke-linecap="round" stroke-linejoin="round"/>
<path d="M179.988 93.164C179.276 93.16 176.392 94.216 173.064 95.58M164.812 99.208C163.036 100.052 161.94 100.576 161.34 100.996M164.752 95.848C162.032 96.604 160.16 97.016 157.508 97.908" stroke="#F8F9F8" stroke-width="1.5" stroke-miterlimit="22.9256" stroke-linecap="round" stroke-linejoin="round"/>
<path d="M134.544 88.156C135.724 85.96 137.092 83.248 138.456 80.864M141.432 75.048C143.196 72.632 144.556 70.468 146.312 68.332M150.36 64.504C159.088 57.124 170.036 53.336 184.856 55.816C173.604 59.584 174.2 67.748 167.688 72.868" stroke="#F8F9F8" stroke-width="1.5" stroke-miterlimit="22.9256" stroke-linecap="round" stroke-linejoin="round"/>
<path d="M162.076 65.172C168.168 59.016 175.68 56.764 183.596 55.62" stroke="#F8F9F8" stroke-width="1.5" stroke-miterlimit="22.9256" stroke-linecap="round" stroke-linejoin="round"/>
<path d="M149.772 56.668C145.812 62.868 142.144 69.304 138.712 75.924M137.076 79.12C135.892 81.472 134.736 83.848 133.604 86.24M124.024 108.216C122.808 111.216 121.616 114.24 120.44 117.28M114.524 133.084C113.064 137.088 111.62 141.108 110.184 145.136" stroke="#F8F9F8" stroke-width="1.5" stroke-miterlimit="22.9256" stroke-linecap="round" stroke-linejoin="round"/>
<path d="M146.768 55.212C145.816 56.7 145.164 57.772 144.244 59.296M141.304 64.344C140.752 65.316 140.404 65.94 139.864 66.928M136.092 74.072C134.324 77.556 132.612 81.104 130.956 84.7M120.416 109.728C119.876 111.112 119.464 112.18 118.932 113.568M112.256 131.596C110.6 136.176 108.972 140.744 107.36 145.276" stroke="#F8F9F8" stroke-width="1.5" stroke-miterlimit="22.9256" stroke-linecap="round" stroke-linejoin="round"/>
<path d="M110.156 35.492C109.788 44.38 109.108 53.072 108.216 61.624M107.328 69.56C107.256 70.148 107.188 70.732 107.116 71.32M101.176 112.028C99.436 123.08 97.708 134.1 96.248 145.236" stroke="#F8F9F8" stroke-width="1.5" stroke-miterlimit="22.9256" stroke-linecap="round" stroke-linejoin="round"/>
<path d="M112.448 36.496C112.1 44.964 111.492 52.612 110.66 60.776M109.384 70.516C109.336 70.916 109.288 71.312 109.24 71.712M101.956 121.408C100.7 129.68 99.7599 136.488 98.6719 144.804" stroke="#F8F9F8" stroke-width="1.5" stroke-miterlimit="22.9256" stroke-linecap="round" stroke-linejoin="round"/>
<path d="M104.12 116.504C104.736 113.692 105.208 110.808 105.58 107.876M111.3 60.72C112.044 58.3 112.936 55.952 114.008 53.696M119.888 44.556C124.816 38.788 138.804 27.88 147.488 14.364C146.616 19.936 145.592 25.336 144.432 30.592M140.536 45.956C139.528 49.468 138.452 52.924 137.312 56.336M130.924 73.476C129.284 77.464 127.552 81.412 125.736 85.34M114.86 106.904C113.248 109.88 112.004 112.112 110.304 115.112" stroke="#F8F9F8" stroke-width="1.5" stroke-miterlimit="22.9256" stroke-linecap="round" stroke-linejoin="round"/>
<path d="M146.68 16.328C141.364 25.552 136.668 35.116 132.388 44.916M120.392 75.432C119.244 78.632 118.116 81.844 117 85.064" stroke="#F8F9F8" stroke-width="1.5" stroke-miterlimit="22.9256" stroke-linecap="round" stroke-linejoin="round"/>
<path d="M65.6641 62.456C63.2721 54.112 66.2481 41.196 58.3081 25.516C65.1881 32.496 70.8601 39.824 75.5281 47.452M84.5601 65.44C86.1481 69.384 87.5361 73.388 88.7401 77.444M95.0841 111.96C96.0841 122.872 96.3441 133.604 96.2481 144.836" stroke="#F8F9F8" stroke-width="1.5" stroke-miterlimit="22.9256" stroke-linecap="round" stroke-linejoin="round"/>
<path d="M59.5518 28.148C64.9678 39.684 69.8638 51.36 74.2438 63.176M78.9318 76.464C79.9918 79.628 81.0158 82.804 82.0038 85.988M87.8438 106.552C91.0038 118.728 93.5198 130.556 95.6518 143.004" stroke="#F8F9F8" stroke-width="1.5" stroke-miterlimit="22.9256" stroke-linecap="round" stroke-linejoin="round"/>
<path d="M71.48 26.032C71.428 31.588 72.384 35.416 74.184 38.596" stroke="#F8F9F8" stroke-width="1.5" stroke-miterlimit="22.9256" stroke-linecap="round" stroke-linejoin="round"/>
<path d="M73.9481 25.68C73.9001 31.236 74.7921 34.956 76.5921 38.136" stroke="#F8F9F8" stroke-width="1.5" stroke-miterlimit="22.9256" stroke-linecap="round" stroke-linejoin="round"/>
<path d="M89.696 63.564C89.152 67.76 89.308 72.792 90.164 78.692" stroke="#F8F9F8" stroke-width="1.5" stroke-miterlimit="22.9256" stroke-linecap="round" stroke-linejoin="round"/>
<path d="M93.9677 61.488C92.7797 64.812 92.6237 67.96 93.0117 71.024" stroke="#F8F9F8" stroke-width="1.5" stroke-miterlimit="22.9256" stroke-linecap="round" stroke-linejoin="round"/>
<path d="M81.0677 34.296C80.9437 29.252 83.5077 21.392 91.1157 8.44C89.6677 15.856 92.0077 24.172 94.9917 33.684M101.712 60.684C102.34 64.752 103.076 68.956 103.092 73.38" stroke="#F8F9F8" stroke-width="1.5" stroke-miterlimit="22.9256" stroke-linecap="round" stroke-linejoin="round"/>
<path d="M91.1161 8.44C88.5041 15.448 87.3401 22.416 88.0601 29.46M97.0321 63.764C97.4001 66 97.5761 68.152 97.4641 70.192" stroke="#F8F9F8" stroke-width="1.5" stroke-miterlimit="22.9256" stroke-linecap="round" stroke-linejoin="round"/>
<path d="M64.1519 63.176C62.3879 59.176 60.0079 55.568 57.2679 52.276M37.2639 34.804C30.9159 30.16 25.8319 26.604 22.8479 22.62C21.1919 28.58 21.9799 36.024 24.1079 43.168M25.9238 48.412C27.8118 53.244 30.3679 57.46 33.0759 60.728M38.7839 66.06C39.5799 66.592 40.3599 67.02 41.1039 67.328" stroke="#F8F9F8" stroke-width="1.5" stroke-miterlimit="22.9256" stroke-linecap="round" stroke-linejoin="round"/>
<path d="M22.9199 23.936C25.1119 29.948 27.8719 35.304 31.9159 39.204" stroke="#F8F9F8" stroke-width="1.5" stroke-miterlimit="22.9256" stroke-linecap="round" stroke-linejoin="round"/>
<path d="M29.2117 80.576C27.3157 78.548 25.5517 76.5 23.9397 74.432M20.9597 70.344C15.8397 62.756 12.7917 54.868 12.5957 46.572C18.4917 58.02 25.9477 54.552 33.4077 61.66" stroke="#F8F9F8" stroke-width="1.5" stroke-miterlimit="22.9256" stroke-linecap="round" stroke-linejoin="round"/>
<path d="M12.5957 46.572C16.8877 62.112 24.4677 68.036 32.7197 71.988" stroke="#F8F9F8" stroke-width="1.5" stroke-miterlimit="22.9256" stroke-linecap="round" stroke-linejoin="round"/>
<path d="M12.8521 82.072C14.4401 82.132 15.7321 82.188 17.2881 82.288M20.4321 82.512C23.3401 82.756 26.1841 83.088 28.9321 83.544M43.636 87.824C45.948 88.892 48.116 90.152 50.124 91.632" stroke="#F8F9F8" stroke-width="1.5" stroke-miterlimit="22.9256" stroke-linecap="round" stroke-linejoin="round"/>
<path d="M14.7559 94.908C18.8479 93.544 22.9439 93.62 27.0399 95.248" stroke="#F8F9F8" stroke-width="1.5" stroke-miterlimit="22.9256" stroke-linecap="round" stroke-linejoin="round"/>
<path d="M85.3518 144.52C81.5958 136.596 78.6238 133.78 73.0398 132.728C67.4278 131.672 62.4718 137.056 57.1878 139.22C51.6038 141.684 46.2198 142.528 41.3478 146.212C35.9438 150.3 33.6598 153.308 32.8798 161.864C28.1118 139.456 42.9118 127.356 57.6398 122.764C69.5118 119.064 88.1798 126.412 87.7758 144.748" stroke="#F8F9F8" stroke-width="1.5" stroke-miterlimit="22.9256" stroke-linecap="round" stroke-linejoin="round"/>
<path d="M32.356 158.896C37.04 127.8 80.7 114.88 86.856 144.668" stroke="#F8F9F8" stroke-width="1.5" stroke-miterlimit="22.9256" stroke-linecap="round" stroke-linejoin="round"/>
<path d="M51.36 125.212C44.312 120.484 35.136 118.356 24.46 118.06C64.336 105.384 87.008 113.78 91.048 144.988" stroke="#F8F9F8" stroke-width="1.5" stroke-miterlimit="22.9256" stroke-linecap="round" stroke-linejoin="round"/>
<path d="M24.46 118.06C50.112 114.008 72.188 113.704 80.5 127.796" stroke="#F8F9F8" stroke-width="1.5" stroke-miterlimit="22.9256" stroke-linecap="round" stroke-linejoin="round"/>
<path d="M50.3118 112.588C36.2238 108.412 23.8638 112.448 14.0918 114.632C17.4878 109.548 21.6758 105.152 26.3318 101.644M44.4198 93.192C46.3598 92.78 48.2038 92.536 50.1518 92.432M58.0118 92.908C58.9758 93.084 60.1638 93.44 61.1158 93.704M66.8678 95.94C73.5198 99.404 79.4238 105.516 83.7358 114.788" stroke="#F8F9F8" stroke-width="1.5" stroke-miterlimit="22.9256" stroke-linecap="round" stroke-linejoin="round"/>
<path d="M14.0918 114.632C19.0318 112.092 23.3718 109.924 28.0718 107.988M31.1438 106.828C32.6798 106.232 33.9438 105.692 35.4438 105.184M38.6758 104.172C39.9478 103.792 41.0918 103.404 42.3398 103.104M68.0358 104.572C74.5478 107.92 79.8798 114.264 83.6478 124.556" stroke="#F8F9F8" stroke-width="1.5" stroke-miterlimit="22.9256" stroke-linecap="round" stroke-linejoin="round"/>
<path d="M53.0879 62.828C54.1399 64.164 55.1439 65.508 56.0879 66.86" stroke="#F8F9F8" stroke-width="1.5" stroke-miterlimit="22.9256" stroke-linecap="round" stroke-linejoin="round"/>
<path d="M50.7319 24.488C54.0119 28.112 56.3559 32.188 58.1279 36.54M59.4199 40.056C59.9079 41.524 60.3479 43.012 60.7479 44.52M62.1719 50.648C63.0159 54.712 63.7119 58.848 64.4879 62.94" stroke="#F8F9F8" stroke-width="1.5" stroke-miterlimit="22.9256" stroke-linecap="round" stroke-linejoin="round"/>
</g>
<defs>
<clipPath id="clip0_53_369">
<rect width="200" height="200" fill="white"/>
</clipPath>
</defs>
</svg>
