<svg width="200" height="200" viewBox="0 0 200 200" fill="none" xmlns="http://www.w3.org/2000/svg">
<g clip-path="url(#clip0_53_367)">
<path d="M200 109.112V129.212C200 141.476 171.632 151.416 136.64 151.416C101.644 151.416 73.2759 141.476 73.2759 129.212V109.112M83.0439 117.368C89.2039 113.952 97.9559 111.164 108.324 109.348M138.144 107.016C160.052 107.196 179.208 111.272 190.192 117.344" stroke="#F8F9F8" stroke-width="1.5" stroke-miterlimit="22.9256" stroke-linecap="round" stroke-linejoin="round"/>
<path d="M143.796 87.048C175.42 88.296 200 97.696 200 109.112C200 121.372 171.632 131.312 136.64 131.312C101.644 131.312 73.2759 121.372 73.2759 109.112C73.2759 98.432 94.7919 89.516 123.464 87.392M143.936 90.312C173.376 91.456 196.176 99.436 196.176 109.112C196.176 119.572 169.52 128.056 136.64 128.056C103.756 128.056 77.0999 119.572 77.0999 109.112C77.0999 100.284 96.0719 92.868 121.748 90.768" stroke="#F8F9F8" stroke-width="1.5" stroke-miterlimit="22.9256" stroke-linecap="round" stroke-linejoin="round"/>
<path d="M128.06 67.192L141.636 82.016C143.48 84.032 144.208 86.916 143.94 90.44C143.232 99.736 135.592 113.496 123.236 127.592M102.116 147.92C78.756 166.976 55.636 175.74 48.184 167.604L34.604 152.776M47.384 152.272C50.9 141.772 60.176 128.108 73.336 114.768M103.988 90.02C112.236 84.924 119.96 81.436 126.384 79.884" stroke="#F8F9F8" stroke-width="1.5" stroke-miterlimit="22.9256" stroke-linecap="round" stroke-linejoin="round"/>
<path d="M80.3121 139.396C59.9441 153.984 41.1801 159.956 34.6041 152.776C29.1321 146.804 33.4801 133.212 44.5001 117.86M94.6921 72.668C109.96 64.076 122.844 61.496 128.06 67.192C136.048 75.916 123.104 100.884 99.0001 123.86M77.6561 137.36C59.2921 150.496 42.8841 156.16 37.4241 150.196C32.9281 145.284 36.9361 133.672 46.6961 120.156M93.5761 76.932C108.308 67.968 120.644 64.756 125.24 69.772C132.172 77.34 118.896 100.832 95.4921 122.692" stroke="#F8F9F8" stroke-width="1.5" stroke-miterlimit="22.9256" stroke-linecap="round" stroke-linejoin="round"/>
<path d="M49.5642 102.476C48.2082 101.332 47.2682 99.12 45.4962 99.04C44.3522 98.988 44.0282 101.124 44.2642 102.244C44.5162 103.412 45.9122 103.984 46.7322 104.856" stroke="#F8F9F8" stroke-width="1.5" stroke-miterlimit="22.9256" stroke-linecap="round" stroke-linejoin="round"/>
<path fill-rule="evenodd" clip-rule="evenodd" d="M41.2841 100.68C40.8521 103.812 44.5121 105.416 46.7321 104.856C49.1161 104.256 51.4121 100.6 50.3081 98.4C49.1641 96.124 44.6201 95.272 42.7921 97.004C41.8281 97.912 41.4641 99.368 41.2841 100.68Z" stroke="#F8F9F8" stroke-width="1.5" stroke-miterlimit="22.9256" stroke-linecap="round" stroke-linejoin="round"/>
<path d="M42.916 104.088C43.088 107.664 48.068 109.696 50.532 108.624C54.016 107.116 52.808 104.728 53.788 102.124C54.4 100.504 56.248 96.62 54.432 94.76C51.752 92.012 47.088 92.988 44.696 96.152" stroke="#F8F9F8" stroke-width="1.5" stroke-miterlimit="22.9256" stroke-linecap="round" stroke-linejoin="round"/>
<path d="M54.808 99.348C55.012 102.348 58.6 103.504 56.596 107.08C54.72 110.432 51.472 115.4 47.912 114.66C45.636 114.188 44.252 112.58 42.16 111.208C40.208 109.928 37.48 108.936 36.9 106.844C36.24 104.46 39.004 102.664 41.276 101.624" stroke="#F8F9F8" stroke-width="1.5" stroke-miterlimit="22.9256" stroke-linecap="round" stroke-linejoin="round"/>
<path d="M50.3442 114.34C53.1642 115.448 55.1202 113.36 56.8042 112.28C59.1322 110.784 61.3642 111.024 62.3242 107.624C63.3162 104.096 60.9362 102.728 59.6402 100.904C58.0842 98.72 57.9442 95.336 54.4322 94.76" stroke="#F8F9F8" stroke-width="1.5" stroke-miterlimit="22.9256" stroke-linecap="round" stroke-linejoin="round"/>
<path d="M57.7242 97.148C58.7282 95.464 58.3682 92.632 57.1442 91.56C54.6722 89.396 51.9642 89.916 48.7402 89.28C45.6002 88.66 41.9482 86.936 40.0442 89.504C37.9642 92.308 39.5762 95.632 41.7362 98.712" stroke="#F8F9F8" stroke-width="1.5" stroke-miterlimit="22.9256" stroke-linecap="round" stroke-linejoin="round"/>
<path d="M39.1198 91.748C35.2598 96.472 27.3318 99.824 27.5478 105.92C27.7118 110.652 35.9678 110.316 39.8638 113.012C43.8958 115.804 46.3638 122.732 51.2598 122.344C55.5118 122.004 55.8558 115.152 58.1558 111.56" stroke="#F8F9F8" stroke-width="1.5" stroke-miterlimit="22.9256" stroke-linecap="round" stroke-linejoin="round"/>
<path d="M57.144 91.56C58.064 91.036 60.068 89.464 62.052 90.876C65.172 93.092 62.492 96.344 64.2 99.228C66.452 103.024 73.584 108.024 70.572 111.248C67.064 114.996 59.196 118.064 56.064 116.516" stroke="#F8F9F8" stroke-width="1.5" stroke-miterlimit="22.9256" stroke-linecap="round" stroke-linejoin="round"/>
<path d="M61.4842 90.548C61.3642 89.328 62.2122 87.452 61.1242 86.892C58.1322 85.356 54.4402 86.032 51.1682 85.252C47.2562 84.32 42.9682 79.56 39.6082 81.772C37.4402 83.2 36.1002 86.612 34.9082 89.376C33.5802 92.452 32.5602 94.924 33.3522 96.996" stroke="#F8F9F8" stroke-width="1.5" stroke-miterlimit="22.9256" stroke-linecap="round" stroke-linejoin="round"/>
<path d="M48.0799 83.948C47.3159 81.764 47.6399 78.492 49.5199 78.484C51.4159 78.472 54.7239 80.912 57.0519 81.848C61.2399 83.532 65.7719 84.696 68.1159 87.164C72.5719 91.856 72.8239 100.408 71.7159 101.868C70.8479 103.016 69.0679 103 67.7439 103.564" stroke="#F8F9F8" stroke-width="1.5" stroke-miterlimit="22.9256" stroke-linecap="round" stroke-linejoin="round"/>
<path d="M30.2761 99.808C28.6321 97.3 26.5241 95.504 26.6921 92.508C26.8441 89.828 29.3961 88.72 31.0201 86.584C33.5361 83.276 33.7401 78.892 37.6001 77.348C40.9881 75.992 45.6681 77.444 47.9761 79.796" stroke="#F8F9F8" stroke-width="1.5" stroke-miterlimit="22.9256" stroke-linecap="round" stroke-linejoin="round"/>
<path d="M67.3538 76.4809C69.5666 77.389 72.0966 76.3314 73.0047 74.1186C73.9127 71.9058 72.8551 69.3759 70.6423 68.4678C68.4295 67.5597 65.8996 68.6174 64.9915 70.8301C64.0834 73.0429 65.1411 75.5728 67.3538 76.4809Z" stroke="#F8F9F8" stroke-width="1.5" stroke-miterlimit="22.9256" stroke-linecap="round" stroke-linejoin="round"/>
<path fill-rule="evenodd" clip-rule="evenodd" d="M62.7442 69.544C59.8482 66.604 59.1722 62.008 61.6642 59.988C63.8242 58.24 67.5442 62.02 68.3202 65.032C69.0682 61.96 74.3362 59.532 76.7282 61.424C79.4162 63.548 81.1202 69.172 76.7482 71.7C79.1602 71.66 83.2602 75.608 82.0682 78.116C80.9002 80.584 76.3282 81.064 73.8922 77.712C75.1602 80.884 74.9122 84.948 72.4162 85.064C69.6442 85.196 67.2122 82.116 68.0042 77.992C65.6722 80.756 59.7962 80.076 58.3522 77.752C56.4282 74.664 58.5802 71.984 62.7442 69.544Z" stroke="#F8F9F8" stroke-width="1.5" stroke-miterlimit="22.9256" stroke-linecap="round" stroke-linejoin="round"/>
<path d="M62.5198 79.752C61.4958 80.784 60.9758 82.324 61.0718 83.356" stroke="#F8F9F8" stroke-width="1.5" stroke-miterlimit="22.9256" stroke-linecap="round" stroke-linejoin="round"/>
<path d="M68.7561 82.944C68.3521 84.312 67.4681 85.2 66.1001 85.596" stroke="#F8F9F8" stroke-width="1.5" stroke-miterlimit="22.9256" stroke-linecap="round" stroke-linejoin="round"/>
<path d="M70.3682 90.476C71.9002 88.984 72.7002 87.36 72.4162 85.064C74.3682 87.312 77.5842 88.616 79.3682 87.004C81.1202 85.428 79.8082 82.564 77.9522 80.076C80.6362 82.272 84.7722 84.208 87.2482 82.216C89.1962 80.648 84.9922 77.404 82.2362 76.632C86.7402 77.612 90.0562 74.592 88.2322 70.964C87.0442 68.6 82.9682 69.192 80.2962 71.172C83.7362 68.804 87.2602 65.988 86.4522 62.548C85.8402 59.956 81.7682 61.688 78.5322 63.672C80.7962 60.8 82.4922 55.76 79.7042 54.292C76.9922 52.86 73.8642 56.14 73.2962 60.904C73.2562 57.496 72.3282 54.568 69.9402 52.984C68.5922 52.096 67.7362 55.7 68.1002 57.468C66.6122 55.196 64.7962 52.26 62.6242 53.108C60.4682 53.952 60.2842 57.636 61.6642 59.988C58.7722 57.804 52.5202 55.948 50.3122 59.036C48.3602 61.764 54.0802 65.4 56.9042 66.64C53.7522 65.756 49.3442 66.536 49.5562 69.112C49.8442 72.624 54.2962 75.016 57.6642 75.9C55.8242 76.94 54.5642 78.344 54.9802 80.828" stroke="#F8F9F8" stroke-width="1.5" stroke-miterlimit="22.9256" stroke-linecap="round" stroke-linejoin="round"/>
<path d="M71.5322 93.584C74.5842 93.264 76.2482 91.348 77.1442 87.716C79.0962 88.548 79.9042 91.456 82.0082 91.22C83.2562 91.08 84.0682 87.38 83.2162 85.676C84.3722 87.54 90.2402 88.356 91.2322 86.416C92.2122 84.492 90.3162 81.968 87.7202 80.972C91.5482 81.512 93.8362 80.216 93.4602 77.276C93.1922 75.168 91.5122 73.38 88.7442 72.996C90.9282 72.42 93.4722 70.052 93.5202 67.668C93.5522 66.064 91.0402 65.948 88.8682 66.432C90.3842 65.408 92.4762 63.056 91.5122 61.436C90.6002 59.9 88.4562 60.676 86.1722 61.9C88.2722 59.604 89.1322 57.368 87.7602 55.752C85.9922 53.676 82.4882 52.52 79.7042 54.292C80.1162 52.268 78.4082 48.496 76.0962 48.348C73.6002 48.188 71.1042 49.976 70.8562 53.724C70.6002 51.096 68.7402 47.74 66.1442 47.476C64.1002 47.268 62.4522 48.852 63.3282 52.96C61.6042 50.86 58.2682 48.396 55.1602 49.776C52.4002 51 52.0362 55.084 53.1722 57.468" stroke="#F8F9F8" stroke-width="1.5" stroke-miterlimit="22.9256" stroke-linecap="round" stroke-linejoin="round"/>
<path d="M50.4161 61.776C43.8601 64.112 44.3281 66.416 49.5601 68.692" stroke="#F8F9F8" stroke-width="1.5" stroke-miterlimit="22.9256" stroke-linecap="round" stroke-linejoin="round"/>
<path d="M52.076 73.204C49.912 75.788 50.16 77.764 52.148 79.308" stroke="#F8F9F8" stroke-width="1.5" stroke-miterlimit="22.9256" stroke-linecap="round" stroke-linejoin="round"/>
<path d="M46.1201 66.548C43.8921 68.952 44.5881 72.028 50.2401 71.18C45.7921 73.024 46.3801 76.016 50.6081 77.092" stroke="#F8F9F8" stroke-width="1.5" stroke-miterlimit="22.9256" stroke-linecap="round" stroke-linejoin="round"/>
<path d="M46.9482 63.408C45.7402 59.988 47.4362 59.012 50.3122 59.036C47.7322 54.216 49.9762 52.9 53.0042 52.152" stroke="#F8F9F8" stroke-width="1.5" stroke-miterlimit="22.9256" stroke-linecap="round" stroke-linejoin="round"/>
<path d="M58.3359 49.536C59.9039 47.472 61.6079 46.708 63.5959 48.672" stroke="#F8F9F8" stroke-width="1.5" stroke-miterlimit="22.9256" stroke-linecap="round" stroke-linejoin="round"/>
<path d="M68.3159 48.492C70.1159 47.092 71.8559 47.112 73.5279 48.92" stroke="#F8F9F8" stroke-width="1.5" stroke-miterlimit="22.9256" stroke-linecap="round" stroke-linejoin="round"/>
<path d="M78.6758 50.2C81.7238 49.924 83.4198 51.12 83.9838 53.548" stroke="#F8F9F8" stroke-width="1.5" stroke-miterlimit="22.9256" stroke-linecap="round" stroke-linejoin="round"/>
<path d="M92.7119 70.028C95.2879 71.788 94.8639 73.672 92.9199 75.624" stroke="#F8F9F8" stroke-width="1.5" stroke-miterlimit="22.9256" stroke-linecap="round" stroke-linejoin="round"/>
<path d="M88.5481 87.528C87.1201 90.14 85.2881 91.052 83.0361 90.168" stroke="#F8F9F8" stroke-width="1.5" stroke-miterlimit="22.9256" stroke-linecap="round" stroke-linejoin="round"/>
<path d="M80.668 90.908C78.86 94.784 76.688 94.572 74.356 92.584" stroke="#F8F9F8" stroke-width="1.5" stroke-miterlimit="22.9256" stroke-linecap="round" stroke-linejoin="round"/>
<path d="M26.692 92.508C17.028 89.44 3.976 97.076 0 103.06C9.948 101.016 18.632 109.424 29.048 108.692" stroke="#F8F9F8" stroke-width="1.5" stroke-miterlimit="22.9256" stroke-linecap="round" stroke-linejoin="round"/>
<path d="M30.276 99.808C20.032 97.084 9.952 98.496 0 103.06" stroke="#F8F9F8" stroke-width="1.5" stroke-miterlimit="22.9256" stroke-linecap="round" stroke-linejoin="round"/>
<path d="M19.1882 107.132C9.83216 110.556 7.32416 118.12 5.66016 126.2C17.6002 122.268 31.8122 129.46 41.4842 114.404" stroke="#F8F9F8" stroke-width="1.5" stroke-miterlimit="22.9256" stroke-linecap="round" stroke-linejoin="round"/>
<path d="M5.66016 126.2C13.2162 117.332 26.6522 118.152 34.7522 110.96" stroke="#F8F9F8" stroke-width="1.5" stroke-miterlimit="22.9256" stroke-linecap="round" stroke-linejoin="round"/>
<path d="M33.7278 81.468C20.4278 77.524 17.7878 73.38 13.5278 60.896C26.0558 66.58 36.8078 59.98 45.5998 65.02" stroke="#F8F9F8" stroke-width="1.5" stroke-miterlimit="22.9256" stroke-linecap="round" stroke-linejoin="round"/>
<path d="M13.5278 60.896C32.3198 79.16 33.7998 66.312 47.1638 74.344" stroke="#F8F9F8" stroke-width="1.5" stroke-miterlimit="22.9256" stroke-linecap="round" stroke-linejoin="round"/>
<path d="M29.5639 63.276C24.4719 60.356 21.1479 55.636 22.7119 47.716C34.0479 54.7 40.8439 45.712 49.8479 53.672" stroke="#F8F9F8" stroke-width="1.5" stroke-miterlimit="22.9256" stroke-linecap="round" stroke-linejoin="round"/>
<path d="M22.7119 47.716C28.5199 59.232 40.7959 54.44 46.8879 60.196" stroke="#F8F9F8" stroke-width="1.5" stroke-miterlimit="22.9256" stroke-linecap="round" stroke-linejoin="round"/>
<path d="M93.5201 67.668C105.376 63.488 113.224 52.476 116.684 42.036C106.812 50.28 90.8281 44.16 83.8281 52.992" stroke="#F8F9F8" stroke-width="1.5" stroke-miterlimit="22.9256" stroke-linecap="round" stroke-linejoin="round"/>
<path d="M87.4722 60.244C95.6202 52.332 106.66 51.996 116.684 42.036" stroke="#F8F9F8" stroke-width="1.5" stroke-miterlimit="22.9256" stroke-linecap="round" stroke-linejoin="round"/>
<path d="M71.02 47.508C75.94 32.888 94.38 35.296 104.124 29.36C105.38 35.74 103.932 41.784 100.032 47.208" stroke="#F8F9F8" stroke-width="1.5" stroke-miterlimit="22.9256" stroke-linecap="round" stroke-linejoin="round"/>
<path d="M79.4121 50.164C82.4841 40.996 97.9001 41.488 104.124 29.36" stroke="#F8F9F8" stroke-width="1.5" stroke-miterlimit="22.9256" stroke-linecap="round" stroke-linejoin="round"/>
</g>
<defs>
<clipPath id="clip0_53_367">
<rect width="200" height="200" fill="white"/>
</clipPath>
</defs>
</svg>
