<svg width="200" height="200" viewBox="0 0 200 200" fill="none" xmlns="http://www.w3.org/2000/svg">
<g clip-path="url(#clip0_53_368)">
<path fill-rule="evenodd" clip-rule="evenodd" d="M78.8082 71.656C79.2762 70.848 80.9122 70.456 81.5682 71.124C83.0882 72.668 85.2362 75.216 84.1522 77.088C83.2162 78.704 79.9362 77.528 78.6282 76.2C77.5682 75.12 78.0482 72.968 78.8082 71.656Z" stroke="#F8F9F8" stroke-width="1.5" stroke-miterlimit="22.9256" stroke-linecap="round" stroke-linejoin="round"/>
<path d="M80.0918 70.84C81.3718 67.5 85.2158 68.14 86.4878 69.88C87.8878 71.792 88.6958 75.404 84.3398 76.66" stroke="#F8F9F8" stroke-width="1.5" stroke-miterlimit="22.9256" stroke-linecap="round" stroke-linejoin="round"/>
<path d="M78.2162 73.08C74.3682 74.84 74.2322 79.452 77.5802 81.592C79.6362 82.908 84.5562 82.412 83.6962 77.568" stroke="#F8F9F8" stroke-width="1.5" stroke-miterlimit="22.9256" stroke-linecap="round" stroke-linejoin="round"/>
<path d="M87.4838 73.964C88.9558 74.756 89.2998 76.276 88.6638 78.152C88.3278 79.144 86.6718 78.992 85.9678 79.768C84.1638 81.752 85.4718 85.12 81.2558 86.3C75.3478 87.956 74.7678 84.432 73.3078 82.932C72.0398 81.632 67.7678 79.892 67.8518 77.276C67.9478 74.164 70.9398 71.42 73.7078 70C75.2998 69.184 77.5118 70.296 78.8078 71.656" stroke="#F8F9F8" stroke-width="1.5" stroke-miterlimit="22.9256" stroke-linecap="round" stroke-linejoin="round"/>
<path d="M76.472 70.056C75.46 68.148 76.344 66.096 77.392 64.568C78.448 63.028 80.512 63.06 81.848 62.452C83.796 61.564 85.112 60.512 87.012 61.184C89.944 62.216 90.132 66.588 91.292 69.468C92.22 71.784 94.3 74.428 93.252 76.688C92.264 78.812 89.612 80.832 86.724 79.292" stroke="#F8F9F8" stroke-width="1.5" stroke-miterlimit="22.9256" stroke-linecap="round" stroke-linejoin="round"/>
<path d="M68.7158 74.456C62.6278 69.792 68.9558 65.748 70.8438 64.256C72.3038 63.1 73.1198 60.716 74.9678 60.484C76.6958 60.268 77.9478 62.284 79.4398 63.184" stroke="#F8F9F8" stroke-width="1.5" stroke-miterlimit="22.9256" stroke-linecap="round" stroke-linejoin="round"/>
<path d="M67.5122 73.38C65.0081 75.996 64.2162 81.164 66.0122 84.412C67.1322 86.444 70.5481 86.432 72.8481 87.356C75.6161 88.472 78.3641 91.424 81.2161 90.54C85.4041 89.244 88.3602 85.968 88.2242 79.792" stroke="#F8F9F8" stroke-width="1.5" stroke-miterlimit="22.9256" stroke-linecap="round" stroke-linejoin="round"/>
<path d="M87.2241 85.452C91.5921 84.928 97.3961 84.168 99.5281 77.464C101.232 72.104 96.9241 69.696 95.3401 66.232C93.5881 62.4 94.3761 57.524 90.6161 55.628C84.9641 52.776 75.9161 54.464 74.5801 60.568" stroke="#F8F9F8" stroke-width="1.5" stroke-miterlimit="22.9256" stroke-linecap="round" stroke-linejoin="round"/>
<path d="M72.7041 62.096C69.1761 62.696 64.9441 61.692 62.1241 63.888C60.9001 64.844 60.7082 66.812 59.8442 68.22C58.5682 70.284 57.1082 71.96 57.1002 74.24C57.0882 78.088 59.1241 80.944 60.3481 84.172C61.5721 87.42 61.3802 90.012 64.6842 92.896C66.6802 94.636 69.4162 94.6 72.1442 95.088C74.7202 95.552 77.1922 97.128 79.6522 96.688C81.9682 96.276 83.6561 94.444 85.4921 93.512C87.9121 92.284 90.1001 92.1 92.1561 90.336C94.4081 88.4 94.9161 85.08 96.2961 82.452" stroke="#F8F9F8" stroke-width="1.5" stroke-miterlimit="22.9256" stroke-linecap="round" stroke-linejoin="round"/>
<path d="M63.6519 63.032C62.8159 58.312 64.8159 54.564 67.9079 52.248C71.8759 49.276 77.5839 50.096 82.4079 48.972C85.8479 48.172 89.4639 45.064 92.6999 46.48C95.8079 47.84 95.3999 52.764 97.3759 55.52C100.42 59.772 105.392 58.26 107.664 67.372C109.084 73.052 106.212 74.16 105.668 77.816C105.204 80.908 106.324 84.496 104.704 87.172C102.932 90.092 99.5358 90.624 96.8358 92.716C93.2078 95.532 92.7119 99.296 85.9959 101.668C82.6599 102.848 78.6838 99.904 75.3918 101.2C72.9758 102.152 69.3318 104.316 65.4158 99.956C63.7238 98.072 63.2159 95.372 61.8279 93.252C58.8959 88.76 53.2839 85.46 52.4759 80.156C51.9079 76.436 54.0598 71.396 58.3598 70.52" stroke="#F8F9F8" stroke-width="1.5" stroke-miterlimit="22.9256" stroke-linecap="round" stroke-linejoin="round"/>
<path d="M75.3921 101.2C78.1121 104.316 85.9361 106.256 91.0321 105.008C97.6961 103.38 99.3721 100.096 104.644 95.708C108.82 92.232 106.224 88.232 107.788 86.36C113.328 79.724 115.344 71.408 113.212 65.24C110.532 57.496 102.636 54.148 95.9001 51.992" stroke="#F8F9F8" stroke-width="1.5" stroke-miterlimit="22.9256" stroke-linecap="round" stroke-linejoin="round"/>
<path d="M53.108 75.296C49.548 67.344 52.796 61.492 56.744 54.372C58.5 51.204 64.056 47.416 68.488 47.552C70.78 47.624 72.8 49.12 74.956 49.904" stroke="#F8F9F8" stroke-width="1.5" stroke-miterlimit="22.9256" stroke-linecap="round" stroke-linejoin="round"/>
<path d="M139.336 76.24C139.496 75.664 139.952 75.376 140.348 75.504C140.816 75.656 141.26 76.348 141.06 76.8C140.74 77.516 139.824 78.608 139.156 78.192C138.236 77.624 137.676 75.976 138.268 75.076C139.048 73.892 141.008 72.808 142.224 73.528C143.536 74.3 143.88 76.62 143.216 77.992C142.404 79.66 140.38 81.484 138.572 81.06C136.952 80.676 136.3 78.388 136.648 76.444" stroke="#F8F9F8" stroke-width="1.5" stroke-miterlimit="22.9256" stroke-linecap="round" stroke-linejoin="round"/>
<path fill-rule="evenodd" clip-rule="evenodd" d="M145.964 77.496C146.776 75.228 144.848 71.616 142.484 71.16C139.14 70.516 134.172 71.796 133.024 75C131.884 78.168 134.584 83.444 137.932 83.832C142.036 84.308 144.812 80.704 145.964 77.496Z" stroke="#F8F9F8" stroke-width="1.5" stroke-miterlimit="22.9256" stroke-linecap="round" stroke-linejoin="round"/>
<path fill-rule="evenodd" clip-rule="evenodd" d="M135.788 69.732C140.192 69.252 146.652 68.856 148.732 72.768C149.776 74.736 149.332 77.48 149.1 79.968C148.784 83.384 148.14 86.524 145.696 88.384C141.152 91.844 134.236 92.824 129.616 89.468C127.276 87.764 126.476 83.78 126.908 80.504C127.124 78.844 126.864 76.452 127.4 75.088C128.612 72 132.492 70.092 135.788 69.732Z" stroke="#F8F9F8" stroke-width="1.5" stroke-miterlimit="22.9256" stroke-linecap="round" stroke-linejoin="round"/>
<path d="M123.72 48.772C120.756 47.412 116.212 45.536 113.124 47.792C107.496 51.9 109.26 57.244 111.108 61.204C112.788 64.804 117.856 67.312 121.504 65.736C125.672 63.936 126.812 60.724 127.304 54.612" stroke="#F8F9F8" stroke-width="1.5" stroke-miterlimit="22.9256" stroke-linecap="round" stroke-linejoin="round"/>
<path d="M134.624 41.364C135.66 37.976 138.856 34.812 142.156 34.92C146.016 35.044 150.812 38.092 151.396 41.908C152.068 46.304 148.928 51.496 145.028 53.632C141.8 55.4 137.292 53.712 134.236 51.304" stroke="#F8F9F8" stroke-width="1.5" stroke-miterlimit="22.9256" stroke-linecap="round" stroke-linejoin="round"/>
<path d="M124.556 63.636C125.504 69.16 131.884 70.824 135.788 69.732C140.976 68.28 146.484 63.112 139.364 53.976" stroke="#F8F9F8" stroke-width="1.5" stroke-miterlimit="22.9256" stroke-linecap="round" stroke-linejoin="round"/>
<path d="M119.628 47.196C116.7 44.38 113.192 39.168 114.332 34.784C116.156 27.752 124.044 25.952 129.784 26.784C134.084 27.404 136.788 31.92 136.448 37.984" stroke="#F8F9F8" stroke-width="1.5" stroke-miterlimit="22.9256" stroke-linecap="round" stroke-linejoin="round"/>
<path fill-rule="evenodd" clip-rule="evenodd" d="M129.808 43.504C128.228 43.912 127.316 46.168 127.456 47.792C127.568 49.068 129.156 50.58 130.392 50.26C131.832 49.888 132.812 47.92 132.684 46.44C132.564 45.076 131.132 43.16 129.808 43.504Z" stroke="#F8F9F8" stroke-width="1.5" stroke-miterlimit="22.9256" stroke-linecap="round" stroke-linejoin="round"/>
<path fill-rule="evenodd" clip-rule="evenodd" d="M126.828 50.112C126.828 49.468 125.372 49.984 124.92 50.44C124.548 50.82 124.396 52.132 124.92 52.04C125.812 51.884 126.828 51.012 126.828 50.112Z" fill="#F8F9F8"/>
<path fill-rule="evenodd" clip-rule="evenodd" d="M128.708 51.076C127.984 50.596 126.62 51.52 126.444 52.372C126.304 53.06 127.588 53.888 128.2 53.54C128.924 53.124 129.404 51.54 128.708 51.076Z" fill="#F8F9F8"/>
<path fill-rule="evenodd" clip-rule="evenodd" d="M129.976 52.168C129.208 52.116 129.036 53.788 129.468 54.428C129.868 55.02 131.448 55.276 131.604 54.58C131.816 53.636 130.944 52.236 129.976 52.168Z" fill="#F8F9F8"/>
<path fill-rule="evenodd" clip-rule="evenodd" d="M131.448 51.252C131.32 50.816 132.516 50.888 132.82 51.228C133.368 51.844 134.356 53.576 133.532 53.592C132.488 53.608 131.752 52.252 131.448 51.252Z" fill="#F8F9F8"/>
<path fill-rule="evenodd" clip-rule="evenodd" d="M133.712 48.944C133.824 48.068 135.472 47.796 136.252 48.204C136.824 48.504 136.62 49.956 135.996 50.136C135.172 50.376 133.6 49.796 133.712 48.944Z" fill="#F8F9F8"/>
<path fill-rule="evenodd" clip-rule="evenodd" d="M134.472 45.708C134.632 45.42 135.732 45.044 136.1 45.108C136.776 45.22 136.712 46.988 136.068 46.756C135.352 46.492 134.096 46.376 134.472 45.708Z" fill="#F8F9F8"/>
<path fill-rule="evenodd" clip-rule="evenodd" d="M132.924 44.116C132.488 43.348 134.224 42.648 135.108 42.616C135.64 42.6 136.336 43.712 135.896 44.016C135.076 44.576 133.408 44.98 132.924 44.116Z" fill="#F8F9F8"/>
<path fill-rule="evenodd" clip-rule="evenodd" d="M131.652 41.448C131.336 41.968 132.06 43.024 132.668 42.972C133.332 42.916 134.08 41.824 133.712 41.272C133.328 40.7 132.012 40.86 131.652 41.448Z" fill="#F8F9F8"/>
<path fill-rule="evenodd" clip-rule="evenodd" d="M129.444 39.136C129.832 38.44 131.564 38.78 131.804 39.544C132.1 40.476 131.348 42.276 130.384 42.108C129.36 41.932 128.94 40.044 129.444 39.136Z" fill="#F8F9F8"/>
<path fill-rule="evenodd" clip-rule="evenodd" d="M125.912 39.596C125.796 38.856 127.516 38.452 128.072 38.96C128.832 39.652 129.54 41.716 128.556 42.008C127.412 42.344 126.1 40.772 125.912 39.596Z" fill="#F8F9F8"/>
<path fill-rule="evenodd" clip-rule="evenodd" d="M124.26 42.516C123.892 41.916 125.06 40.78 125.736 40.992C126.656 41.28 127.928 42.76 127.26 43.456C126.532 44.208 124.812 43.404 124.26 42.516Z" fill="#F8F9F8"/>
<path fill-rule="evenodd" clip-rule="evenodd" d="M123.068 46.452C122.552 45.944 123.392 44.444 124.108 44.548C125.24 44.712 127.096 45.956 126.548 46.96C125.984 47.988 123.9 47.276 123.068 46.452Z" fill="#F8F9F8"/>
<path fill-rule="evenodd" clip-rule="evenodd" d="M123.88 47.924C123.372 48.064 123.196 49.352 123.704 49.5C124.656 49.78 126.464 49.7 126.572 48.712C126.676 47.784 124.78 47.68 123.88 47.924Z" fill="#F8F9F8"/>
<path d="M141.736 65.608C144.968 65.544 149.992 66.608 151.428 68.9C154.472 73.76 154.124 86.196 148.924 91.884C147.08 93.904 143.792 93.592 140.876 94.12C136.532 94.904 132.248 95.692 128.624 93.852C125.948 92.496 123.768 89.384 122.328 86.848C120.772 84.112 119.612 82.78 120.08 78.648C120.532 74.68 124.54 69.98 128.804 69.048" stroke="#F8F9F8" stroke-width="1.5" stroke-miterlimit="22.9256" stroke-linecap="round" stroke-linejoin="round"/>
<path d="M142.728 62.608C144.744 62.324 146.02 63.42 147.336 63.764C149.564 64.348 151.208 66.708 151.428 68.9" stroke="#F8F9F8" stroke-width="1.5" stroke-miterlimit="22.9256" stroke-linecap="round" stroke-linejoin="round"/>
<path d="M125.28 65.788C121.212 67.612 116.804 70.176 115.672 76.096C115.224 78.444 117.352 80.656 118.18 82.9C119.308 85.952 118.26 90.032 120.508 92.388C122.404 94.376 128.048 95.848 130.752 94.632" stroke="#F8F9F8" stroke-width="1.5" stroke-miterlimit="22.9256" stroke-linecap="round" stroke-linejoin="round"/>
<path d="M147.336 63.764C151.604 56.708 156.952 54.796 162.98 54.68C171.752 54.508 179.632 60.204 187.96 62.968C179.044 65.296 175.372 75.596 167.24 78.476C162.732 80.076 156.492 78.708 153.248 75.272" stroke="#F8F9F8" stroke-width="1.5" stroke-miterlimit="22.9256" stroke-linecap="round" stroke-linejoin="round"/>
<path d="M151.428 68.9C158.828 64.48 179.732 61.988 187.96 62.968" stroke="#F8F9F8" stroke-width="1.5" stroke-miterlimit="22.9256" stroke-linecap="round" stroke-linejoin="round"/>
<path d="M153.208 80.728C156.888 79.996 168.392 80.816 172.58 84.98C180.952 93.316 177.592 103.864 187.124 114.488C162.82 114.68 154.448 106.708 147.3 93.012" stroke="#F8F9F8" stroke-width="1.5" stroke-miterlimit="22.9256" stroke-linecap="round" stroke-linejoin="round"/>
<path d="M151.92 86.624C162.984 87.956 174.648 108.876 187.124 114.488" stroke="#F8F9F8" stroke-width="1.5" stroke-miterlimit="22.9256" stroke-linecap="round" stroke-linejoin="round"/>
<path d="M136.64 94.8C138.096 102.176 141.16 108.188 146.768 112.036C147.288 107.952 151.388 105.584 152.532 101.424" stroke="#F8F9F8" stroke-width="1.5" stroke-miterlimit="22.9256" stroke-linecap="round" stroke-linejoin="round"/>
<path d="M143.432 62.56C142.74 59.292 142.996 56.604 143.96 54.08M151.524 44.18C152.68 43.124 153.88 42.088 155.076 41.048C154.416 46.204 156.888 50.2 156.588 55.716" stroke="#F8F9F8" stroke-width="1.5" stroke-miterlimit="22.9256" stroke-linecap="round" stroke-linejoin="round"/>
<path d="M86.3361 47.452C80.6841 38.16 84.8521 26.716 86.7321 26.152C87.4561 25.94 87.2481 27.44 87.6401 27.756C87.8881 27.956 89.0561 27.404 89.5801 27.612C89.9721 27.768 89.2921 28.852 89.5801 29.356C89.7721 29.684 90.9281 29.444 91.2161 29.696C92.0961 30.472 94.0641 39.564 91.7721 46.192" stroke="#F8F9F8" stroke-width="1.5" stroke-miterlimit="22.9256" stroke-linecap="round" stroke-linejoin="round"/>
<path d="M91.2158 29.696C91.8038 25.716 93.1958 23.2 95.8318 20.884C96.4318 20.36 95.8838 23.104 96.6798 23.116C97.5918 23.132 97.2638 21.468 98.1758 21.512C99.0278 21.552 98.5518 23.232 99.4038 23.252C100.216 23.268 99.8718 20.28 100.296 20.976C107.624 32.996 103.528 45.5 99.6518 53.304" stroke="#F8F9F8" stroke-width="1.5" stroke-miterlimit="22.9256" stroke-linecap="round" stroke-linejoin="round"/>
<path d="M102.272 24.848C102.22 23.636 102.284 21.816 103.312 20.948C103.916 20.436 103.588 23.26 104.36 23.08C105.26 22.876 104.92 21.456 105.532 21.436C106.144 21.416 105.652 22.724 106.532 23.12C107.124 23.384 107.236 20.944 107.584 21.492C115.92 34.62 111.064 45.6 105.1 55.908" stroke="#F8F9F8" stroke-width="1.5" stroke-miterlimit="22.9256" stroke-linecap="round" stroke-linejoin="round"/>
<path d="M93.5279 23.408C93.4639 20.036 93.7439 16.316 97.3359 14.444C97.9119 14.144 97.8119 16 98.4599 16.04C99.1559 16.088 99.3119 15.052 99.9959 15.164C100.684 15.276 100.308 16.44 101.004 16.456C101.76 16.472 101.792 14.264 102.424 14.68C104.92 16.336 105.544 19.224 105.812 21.608" stroke="#F8F9F8" stroke-width="1.5" stroke-miterlimit="22.9256" stroke-linecap="round" stroke-linejoin="round"/>
<path d="M103.584 15.668C103.88 15.38 104.088 14.956 104.468 14.8C105.676 14.292 113.668 19.524 115.388 32.236M115.484 41.64C115.316 43.416 115.056 45.052 114.64 47.024" stroke="#F8F9F8" stroke-width="1.5" stroke-miterlimit="22.9256" stroke-linecap="round" stroke-linejoin="round"/>
<path d="M96.2399 15.148C95.8199 13.84 95.0399 12.812 93.8879 13.228C82.9959 17.176 73.9079 32.66 81.4919 49.164" stroke="#F8F9F8" stroke-width="1.5" stroke-miterlimit="22.9256" stroke-linecap="round" stroke-linejoin="round"/>
<path d="M55.7798 86.36C50.5958 88.328 44.7678 89.076 40.2278 92.256C37.2398 94.348 34.5398 97.796 34.2678 101.428C34.0918 103.784 39.0078 104.2 39.1518 106.552C39.2638 108.308 34.6198 109.112 35.4238 112.872C36.1518 116.268 39.7918 115.56 41.5198 117.004C43.2118 118.42 44.3558 121.096 48.0038 120.964C54.3598 120.732 57.9398 116.244 61.4358 109.888" stroke="#F8F9F8" stroke-width="1.5" stroke-miterlimit="22.9256" stroke-linecap="round" stroke-linejoin="round"/>
<path d="M35.448 103.296C31.188 106.78 29.62 113.58 30.78 118.628C31.228 120.568 34.796 120.696 36.62 121.488C38.584 122.344 38.924 124.56 41.032 124.944C44.212 125.532 45.74 124.304 49.496 123.864C50.748 123.72 54.956 123.604 56.76 122.564C60.86 120.2 65.692 111.256 67.952 101.968" stroke="#F8F9F8" stroke-width="1.5" stroke-miterlimit="22.9256" stroke-linecap="round" stroke-linejoin="round"/>
<path d="M43.0522 105.112C46.1922 99.388 51.7042 95.84 59.2322 94.144" stroke="#F8F9F8" stroke-width="1.5" stroke-miterlimit="22.9256" stroke-linecap="round" stroke-linejoin="round"/>
<path d="M47.3042 113.064C52.2602 111.12 56.6082 107.06 59.3682 97.432" stroke="#F8F9F8" stroke-width="1.5" stroke-miterlimit="22.9256" stroke-linecap="round" stroke-linejoin="round"/>
<path d="M73.7759 101.868C68.9199 107.208 66.9199 113.34 70.0839 120.896C82.9839 117.936 100.8 121.232 98.4479 101.32" stroke="#F8F9F8" stroke-width="1.5" stroke-miterlimit="22.9256" stroke-linecap="round" stroke-linejoin="round"/>
<path d="M70.084 120.896C71.752 114.368 77.66 108.684 85.312 105.268" stroke="#F8F9F8" stroke-width="1.5" stroke-miterlimit="22.9256" stroke-linecap="round" stroke-linejoin="round"/>
<path d="M101.74 98.3C103.092 115.728 113.924 129.228 129.308 140.852C124.764 125.368 133.208 113.156 129.964 94.408M115.616 76.624C115.032 76.1 114.204 75.972 113.28 75.996" stroke="#F8F9F8" stroke-width="1.5" stroke-miterlimit="22.9256" stroke-linecap="round" stroke-linejoin="round"/>
<path d="M109.564 84C119.596 102.044 115.288 121.536 129.308 140.852" stroke="#F8F9F8" stroke-width="1.5" stroke-miterlimit="22.9256" stroke-linecap="round" stroke-linejoin="round"/>
<path d="M130.708 101.936C145.308 107.536 138.884 117.312 145 124.32C138.064 124.992 132.388 122.78 129.332 117.676" stroke="#F8F9F8" stroke-width="1.5" stroke-miterlimit="22.9256" stroke-linecap="round" stroke-linejoin="round"/>
<path d="M62.1758 116.384C56.7758 132.66 63.6358 136.444 65.4638 141.92C68.4878 137.048 77.6478 135.784 77.5078 119.72" stroke="#F8F9F8" stroke-width="1.5" stroke-miterlimit="22.9256" stroke-linecap="round" stroke-linejoin="round"/>
<path d="M47.4563 124.208C41.9923 135.388 49.3243 140.836 50.3763 149.74C53.6683 143.728 57.4282 137.008 55.7722 122.984" stroke="#F8F9F8" stroke-width="1.5" stroke-miterlimit="22.9256" stroke-linecap="round" stroke-linejoin="round"/>
<path d="M34.552 99.792C25.2 102.532 18.22 110.136 12.04 119.372C17.888 115.824 24.984 117.976 30.652 112.292" stroke="#F8F9F8" stroke-width="1.5" stroke-miterlimit="22.9256" stroke-linecap="round" stroke-linejoin="round"/>
<path d="M36.7682 95.528C29.3242 99.464 21.8762 99.548 14.4282 97.408C25.6042 83.952 39.2082 81.164 54.1482 84.252" stroke="#F8F9F8" stroke-width="1.5" stroke-miterlimit="22.9256" stroke-linecap="round" stroke-linejoin="round"/>
<path d="M15.2759 97.184C23.1239 89.872 45.5639 88.072 54.8119 85.184" stroke="#F8F9F8" stroke-width="1.5" stroke-miterlimit="22.9256" stroke-linecap="round" stroke-linejoin="round"/>
<path fill-rule="evenodd" clip-rule="evenodd" d="M57.0478 8.86797C53.8558 7.41997 52.3038 3.89597 54.6718 3.39597C57.5558 2.78397 60.5078 5.41597 61.1358 8.00397C63.0958 5.39197 66.8438 2.81597 70.5198 3.68397C72.8198 4.22397 69.2678 7.73197 66.5918 8.92397C69.9398 8.81197 72.5598 10.084 72.0638 12.328C71.4758 14.996 65.0758 15.388 62.4718 13.98C61.8718 15.748 59.2478 17.312 57.2838 16.964C55.9518 16.732 55.5558 14.828 56.6558 12.956C54.8158 13.968 51.9598 13.6 52.0918 12.244C52.2838 10.228 54.2438 8.98397 57.0478 8.86797Z" stroke="#F8F9F8" stroke-width="1.5" stroke-miterlimit="22.9256" stroke-linecap="round" stroke-linejoin="round"/>
<path d="M52.092 12.244C49.644 13.148 46.884 16.492 48.528 18.06C50.452 19.896 53.704 18.836 56.292 16.252C55.04 19.736 57.588 24.356 60.36 23.736C63.584 23.016 63.88 19.08 64.024 14.528C65.424 18.624 67.792 21.184 70.888 20.864C73.22 20.628 72.896 16.04 70.824 13.828C73.808 14.464 79.756 14.336 79.78 12.044C79.808 8.976 73.828 8.836 70.856 9.792" stroke="#F8F9F8" stroke-width="1.5" stroke-miterlimit="22.9256" stroke-linecap="round" stroke-linejoin="round"/>
<path d="M53.7322 5.67999C51.8682 4.61199 47.9802 4.03999 47.6002 6.05199C47.1762 8.29999 50.1962 10.216 52.8242 10.516C49.9722 10.14 46.4362 9.61599 44.6282 11.7C43.4362 13.072 45.3602 15.92 48.3122 15.712" stroke="#F8F9F8" stroke-width="1.5" stroke-miterlimit="22.9256" stroke-linecap="round" stroke-linejoin="round"/>
<path d="M70.6519 5.772C72.9319 4.484 75.8399 3.86 77.6359 5.16C78.8239 6.016 77.4799 7.924 75.5279 9.304" stroke="#F8F9F8" stroke-width="1.5" stroke-miterlimit="22.9256" stroke-linecap="round" stroke-linejoin="round"/>
<path d="M45.8043 15.088C43.4523 15.936 41.7483 19.14 43.2483 20.424C45.0683 21.988 48.6643 20.516 50.2883 18.932C48.7163 21.532 48.0803 24.572 50.6963 25.648C53.6203 26.852 55.0763 24.068 56.8803 21.648" stroke="#F8F9F8" stroke-width="1.5" stroke-miterlimit="22.9256" stroke-linecap="round" stroke-linejoin="round"/>
<path d="M62.8042 21.884C63.1962 24.476 65.8522 25.888 67.1722 25.324C68.1882 24.892 69.2482 23.888 69.0522 20.704" stroke="#F8F9F8" stroke-width="1.5" stroke-miterlimit="22.9256" stroke-linecap="round" stroke-linejoin="round"/>
<path d="M72.4639 17.532C73.8119 19.188 76.2039 19.864 77.5919 18.568C78.9199 17.328 77.9959 15.324 76.1839 14.06" stroke="#F8F9F8" stroke-width="1.5" stroke-miterlimit="22.9256" stroke-linecap="round" stroke-linejoin="round"/>
<path d="M55.4121 23.664C56.0681 29.372 63.0681 29.076 63.6601 23.86" stroke="#F8F9F8" stroke-width="1.5" stroke-miterlimit="22.9256" stroke-linecap="round" stroke-linejoin="round"/>
<path d="M68.6763 23.82C71.3603 25.808 76.5043 21.876 75.0523 19.168" stroke="#F8F9F8" stroke-width="1.5" stroke-miterlimit="22.9256" stroke-linecap="round" stroke-linejoin="round"/>
<path d="M61.9121 12.392C63.8672 12.392 65.4521 11.7007 65.4521 10.848C65.4521 9.99529 63.8672 9.30402 61.9121 9.30402C59.957 9.30402 58.3721 9.99529 58.3721 10.848C58.3721 11.7007 59.957 12.392 61.9121 12.392Z" stroke="#F8F9F8" stroke-width="1.5" stroke-miterlimit="22.9256" stroke-linecap="round" stroke-linejoin="round"/>
<path d="M59.1042 4.79597C58.3162 2.33997 59.8402 0.17197 61.6002 0.12797C63.4802 0.0839697 64.8922 2.51197 64.9842 4.64797" stroke="#F8F9F8" stroke-width="1.5" stroke-miterlimit="22.9256" stroke-linecap="round" stroke-linejoin="round"/>
<path d="M64.7681 3.31999C66.4561 1.57999 69.9721 -0.0200123 71.8321 0.571988C73.0841 0.971988 73.6681 3.82399 72.6961 4.86799" stroke="#F8F9F8" stroke-width="1.5" stroke-miterlimit="22.9256" stroke-linecap="round" stroke-linejoin="round"/>
<path d="M51.6002 4.89599C51.1282 2.37599 51.8722 0.723995 52.8962 0.219995C54.3042 -0.480005 57.3882 0.547995 59.0282 2.44399" stroke="#F8F9F8" stroke-width="1.5" stroke-miterlimit="22.9256" stroke-linecap="round" stroke-linejoin="round"/>
<path d="M51.9679 47.556C52.9267 47.556 53.7039 46.7626 53.7039 45.784C53.7039 44.8053 52.9267 44.012 51.9679 44.012C51.0092 44.012 50.2319 44.8053 50.2319 45.784C50.2319 46.7626 51.0092 47.556 51.9679 47.556Z" stroke="#F8F9F8" stroke-width="1.5" stroke-miterlimit="22.9256" stroke-linecap="round" stroke-linejoin="round"/>
<path fill-rule="evenodd" clip-rule="evenodd" d="M48.5081 45.768C46.8761 45.24 44.7041 42.228 46.0441 41.076C47.6321 39.708 51.4081 41.088 52.1281 42.652C52.9401 40.308 57.6441 38.456 59.5681 40.216C61.5521 42.036 58.1161 45.768 56.0521 45.268C58.2281 45.056 60.5001 46.248 59.8841 47.612C59.1321 49.268 56.5321 49.204 55.0601 48.376C56.7121 49.896 56.5361 52.616 55.1481 52.796C53.3241 53.032 51.1081 50.644 51.0481 49.1C50.0721 50.692 47.4721 53.444 46.3601 51.984C45.0321 50.24 46.4841 47.12 48.5081 45.768Z" stroke="#F8F9F8" stroke-width="1.5" stroke-miterlimit="22.9256" stroke-linecap="round" stroke-linejoin="round"/>
<path d="M49.3519 40.748C48.7199 37.752 48.7919 33.56 51.3719 33.204C53.9519 32.848 54.9399 36.648 55.3919 39.912" stroke="#F8F9F8" stroke-width="1.5" stroke-miterlimit="22.9256" stroke-linecap="round" stroke-linejoin="round"/>
<path d="M60.0719 42.216C62.5199 41.292 66.0559 42.104 65.9759 44.176C65.8959 46.376 61.9239 47.188 59.8999 46.74" stroke="#F8F9F8" stroke-width="1.5" stroke-miterlimit="22.9256" stroke-linecap="round" stroke-linejoin="round"/>
<path d="M48.7 51.728C48.2 53.508 48.276 56.764 49.76 56.776C51.74 56.788 51.864 54.064 52.588 51.756" stroke="#F8F9F8" stroke-width="1.5" stroke-miterlimit="22.9256" stroke-linecap="round" stroke-linejoin="round"/>
<path d="M45.852 48.588C42.092 49.104 38.264 49.316 38.272 46.58C38.28 43.76 42.988 43.44 46.272 43.828" stroke="#F8F9F8" stroke-width="1.5" stroke-miterlimit="22.9256" stroke-linecap="round" stroke-linejoin="round"/>
<path d="M41.9241 43.832C38.0641 42.38 36.2121 40.56 37.6041 38.124C38.8281 35.972 43.0681 38.384 44.2921 39.676C42.7881 37.516 41.9521 34.196 43.7481 32.996C45.6681 31.712 48.3201 33.924 49.0881 36.468" stroke="#F8F9F8" stroke-width="1.5" stroke-miterlimit="22.9256" stroke-linecap="round" stroke-linejoin="round"/>
<path d="M54.4121 35.732C55.4561 33.864 58.4721 32.156 59.9161 33.504C61.6401 35.112 60.3641 37.168 59.0841 39.876C61.0601 37.804 63.1721 35.4 65.3641 36.368C67.1641 37.164 65.7761 40.296 64.2321 42.16" stroke="#F8F9F8" stroke-width="1.5" stroke-miterlimit="22.9256" stroke-linecap="round" stroke-linejoin="round"/>
<path d="M40.4558 48.768C37.7038 49.412 36.8758 51.644 37.9318 52.844C39.2198 54.312 41.7718 54.316 43.7798 52.548C42.7638 54.636 41.5758 58.028 43.4198 59.348C45.1318 60.568 48.0678 58.552 48.8678 56.184" stroke="#F8F9F8" stroke-width="1.5" stroke-miterlimit="22.9256" stroke-linecap="round" stroke-linejoin="round"/>
<path d="M46.5038 33.072C46.2918 30.988 47.0358 29.16 48.8558 29.212C50.9798 29.268 50.9598 31 51.3718 33.204C51.7838 31.26 53.2078 29.044 55.0398 29.112C56.6158 29.168 57.2598 31.888 57.0198 33.408" stroke="#F8F9F8" stroke-width="1.5" stroke-miterlimit="22.9256" stroke-linecap="round" stroke-linejoin="round"/>
<path d="M37.8241 41.384C35.8601 41.28 33.5921 42.184 33.7281 43.76C33.8801 45.536 35.9201 46.356 38.2721 46.58C35.9201 47.112 33.6721 47.868 33.5681 49.756C33.4721 51.536 35.5881 52.668 37.6401 52.384" stroke="#F8F9F8" stroke-width="1.5" stroke-miterlimit="22.9256" stroke-linecap="round" stroke-linejoin="round"/>
<path d="M47.1561 29.98C46.3161 29.012 44.8681 29.084 44.1041 29.76C43.2881 30.476 43.1481 31.796 43.7481 32.996C41.9961 32.016 39.8521 31.816 38.4921 32.92C37.2921 33.896 37.1841 36.604 38.1441 37.548C36.9081 36.96 35.2961 37.468 34.6121 38.472C33.9761 39.412 34.3761 40.944 35.2441 41.82" stroke="#F8F9F8" stroke-width="1.5" stroke-miterlimit="22.9256" stroke-linecap="round" stroke-linejoin="round"/>
<path d="M56.7603 30.848C57.3803 29.836 59.3643 29.72 60.2643 30.476C61.0403 31.132 60.6123 32.596 59.9163 33.504C61.0483 32.896 62.3763 32.88 63.3083 33.52C64.0563 34.036 64.4723 35.204 63.8283 36.2" stroke="#F8F9F8" stroke-width="1.5" stroke-miterlimit="22.9256" stroke-linecap="round" stroke-linejoin="round"/>
<path d="M34.6243 51.732C32.9443 52.604 33.1643 54.788 34.2483 55.248C35.8883 55.948 37.6803 55.036 39.3963 53.764C37.5603 56.772 37.7923 58.04 39.3843 59.132C40.3563 59.8 41.5603 60.012 42.9203 58.84" stroke="#F8F9F8" stroke-width="1.5" stroke-miterlimit="22.9256" stroke-linecap="round" stroke-linejoin="round"/>
<path d="M45.2559 59.636C45.3759 61.236 47.7039 62.06 49.0319 61.764C50.8159 61.364 51.2079 59.844 51.0399 56.752C52.0359 58.38 52.6279 59.012 54.3039 58.924" stroke="#F8F9F8" stroke-width="1.5" stroke-miterlimit="22.9256" stroke-linecap="round" stroke-linejoin="round"/>
<path d="M55.8643 52.368C56.5203 53.196 56.4883 54.3 56.0923 55.548" stroke="#F8F9F8" stroke-width="1.5" stroke-miterlimit="22.9256" stroke-linecap="round" stroke-linejoin="round"/>
<path d="M58.6719 48.712C58.8319 49.736 59.4559 50.304 60.1719 50.704" stroke="#F8F9F8" stroke-width="1.5" stroke-miterlimit="22.9256" stroke-linecap="round" stroke-linejoin="round"/>
<path d="M65.7882 47.892C65.9482 46.936 65.5482 46.408 65.0522 45.752" stroke="#F8F9F8" stroke-width="1.5" stroke-miterlimit="22.9256" stroke-linecap="round" stroke-linejoin="round"/>
<path d="M65.4839 40.268C69.3639 39.752 70.5359 44.172 66.1519 44.708" stroke="#F8F9F8" stroke-width="1.5" stroke-miterlimit="22.9256" stroke-linecap="round" stroke-linejoin="round"/>
<path d="M68.0801 44.032C69.8561 44.84 70.0801 46.164 69.6521 47.708" stroke="#F8F9F8" stroke-width="1.5" stroke-miterlimit="22.9256" stroke-linecap="round" stroke-linejoin="round"/>
<path d="M64.004 24.252C63.484 28.68 64.284 32.58 65.364 36.368" stroke="#F8F9F8" stroke-width="1.5" stroke-miterlimit="22.9256" stroke-linecap="round" stroke-linejoin="round"/>
<path d="M67.1719 25.324C67.1759 34.752 70.5159 42.588 74.9559 49.904" stroke="#F8F9F8" stroke-width="1.5" stroke-miterlimit="22.9256" stroke-linecap="round" stroke-linejoin="round"/>
<path d="M42.096 83.14C34.432 79.972 32.804 72.904 36.548 64.04C40.876 66.624 47.476 65.472 51.62 69.696" stroke="#F8F9F8" stroke-width="1.5" stroke-miterlimit="22.9256" stroke-linecap="round" stroke-linejoin="round"/>
<path d="M36.5479 64.04C38.8959 75.54 48.4359 73.376 53.1519 84.056" stroke="#F8F9F8" stroke-width="1.5" stroke-miterlimit="22.9256" stroke-linecap="round" stroke-linejoin="round"/>
<path d="M34.624 51.732C27.676 45.136 20 48.416 12.692 46.76C14.504 51.368 3.996 74.608 36.696 79.136" stroke="#F8F9F8" stroke-width="1.5" stroke-miterlimit="22.9256" stroke-linecap="round" stroke-linejoin="round"/>
<path d="M42.1919 59.348C43.4759 61.54 44.5439 63.76 43.8719 66.196" stroke="#F8F9F8" stroke-width="1.5" stroke-miterlimit="22.9256" stroke-linecap="round" stroke-linejoin="round"/>
<path d="M12.6919 46.76C24.5919 55.232 20.9119 63.064 34.9999 68.892" stroke="#F8F9F8" stroke-width="1.5" stroke-miterlimit="22.9256" stroke-linecap="round" stroke-linejoin="round"/>
<path d="M109.72 120.944C108.096 126.672 106.928 132.488 106.12 138.372M104.804 171.572C105.156 180.672 105.964 189.796 106.916 198.832" stroke="#F8F9F8" stroke-width="1.5" stroke-miterlimit="22.9256" stroke-linecap="round" stroke-linejoin="round"/>
<path d="M106.948 116.252C105.484 123.864 104.416 131.38 103.676 138.816M102.268 171.14C102.332 180.316 102.744 189.396 103.356 198.408" stroke="#F8F9F8" stroke-width="1.5" stroke-miterlimit="22.9256" stroke-linecap="round" stroke-linejoin="round"/>
<path d="M104.98 112.012C103.292 121.252 102.184 130.26 101.492 139.096M100.552 170.952C100.636 178.492 100.896 185.948 101.22 193.368" stroke="#F8F9F8" stroke-width="1.5" stroke-miterlimit="22.9256" stroke-linecap="round" stroke-linejoin="round"/>
<path d="M102.844 105.356C100.884 116.904 99.6881 128.192 99.0321 139.296M98.4521 170.828C98.6161 180.624 99.0521 190.332 99.5961 200" stroke="#F8F9F8" stroke-width="1.5" stroke-miterlimit="22.9256" stroke-linecap="round" stroke-linejoin="round"/>
<path d="M95.9639 113.8C96.4479 119.26 96.6239 128.512 96.6559 139.396M96.5079 170.812C96.4359 179.776 96.3679 188.584 96.3679 196.34" stroke="#F8F9F8" stroke-width="1.5" stroke-miterlimit="22.9256" stroke-linecap="round" stroke-linejoin="round"/>
<path d="M93.3799 116.132C93.7839 123.924 94.0639 131.688 94.2319 139.408M94.3159 170.888C94.1639 180.648 93.8599 190.288 93.4319 199.776" stroke="#F8F9F8" stroke-width="1.5" stroke-miterlimit="22.9256" stroke-linecap="round" stroke-linejoin="round"/>
<path d="M89.7842 117.98C90.7642 125.028 91.4842 132.164 91.9722 139.344M92.7442 171C92.6122 179.64 92.2242 188.276 91.6402 196.856" stroke="#F8F9F8" stroke-width="1.5" stroke-miterlimit="22.9256" stroke-linecap="round" stroke-linejoin="round"/>
<path d="M87.0522 118.668C88.4562 125.444 89.4682 132.32 90.1682 139.244M91.4922 171.116C91.4162 179.916 91.0402 188.66 90.5242 197.24" stroke="#F8F9F8" stroke-width="1.5" stroke-miterlimit="22.9256" stroke-linecap="round" stroke-linejoin="round"/>
<path d="M84.6401 119.216C85.9561 125.776 86.9921 132.396 87.7641 139.044M89.4961 171.34C89.4481 179.224 89.0641 187.08 88.3681 194.844" stroke="#F8F9F8" stroke-width="1.5" stroke-miterlimit="22.9256" stroke-linecap="round" stroke-linejoin="round"/>
<path d="M81.2119 119.624C82.9919 125.876 84.3639 132.272 85.3719 138.764M87.6839 171.584C87.6479 179.804 87.2039 188.056 86.4559 196.252" stroke="#F8F9F8" stroke-width="1.5" stroke-miterlimit="22.9256" stroke-linecap="round" stroke-linejoin="round"/>
<path d="M78.708 119.904C80.516 126.06 81.936 132.236 83.02 138.412M85.772 171.86C85.744 178.536 85.392 185.136 84.772 191.62" stroke="#F8F9F8" stroke-width="1.5" stroke-miterlimit="22.9256" stroke-linecap="round" stroke-linejoin="round"/>
<path d="M50.6562 148.104C52.0282 140.428 52.7842 132.508 51.3562 123.712" stroke="#F8F9F8" stroke-width="1.5" stroke-miterlimit="22.9256" stroke-linecap="round" stroke-linejoin="round"/>
<path d="M68.5799 112.988C63.0599 122.08 69.5199 132.096 65.4639 141.92" stroke="#F8F9F8" stroke-width="1.5" stroke-miterlimit="22.9256" stroke-linecap="round" stroke-linejoin="round"/>
<path d="M64.6479 111.608C66.2799 109.24 68.0399 107.208 70.3719 106.648" stroke="#F8F9F8" stroke-width="1.5" stroke-miterlimit="22.9256" stroke-linecap="round" stroke-linejoin="round"/>
<path d="M12.7402 118.976C19.5842 111.236 27.1922 106.144 35.4482 103.296" stroke="#F8F9F8" stroke-width="1.5" stroke-miterlimit="22.9256" stroke-linecap="round" stroke-linejoin="round"/>
<path d="M130.384 109.892C136.444 112.42 136.296 120.972 145 124.32" stroke="#F8F9F8" stroke-width="1.5" stroke-miterlimit="22.9256" stroke-linecap="round" stroke-linejoin="round"/>
<path d="M145.108 93.592C146.116 99.924 142.472 103.24 146.768 112.036" stroke="#F8F9F8" stroke-width="1.5" stroke-miterlimit="22.9256" stroke-linecap="round" stroke-linejoin="round"/>
<path d="M155.076 41.048C152.652 51 147.932 54.764 147.336 63.764" stroke="#F8F9F8" stroke-width="1.5" stroke-miterlimit="22.9256" stroke-linecap="round" stroke-linejoin="round"/>
<path fill-rule="evenodd" clip-rule="evenodd" d="M80.624 137.96C89.428 139.792 100.304 140.004 107.812 137.96C107.028 148.944 106.04 159.504 107.184 172.144C99.06 169.912 92.112 170.864 83.664 172.188C83.864 161.096 82.708 148.396 80.624 137.96Z" stroke="#F8F9F8" stroke-width="1.5" stroke-miterlimit="22.9256" stroke-linecap="round" stroke-linejoin="round"/>
<path d="M81.2881 141.548C89.8881 145.652 98.4841 149.296 107.08 148.32C100.284 151.432 92.4481 152.752 82.5641 150.528C89.4161 154.492 97.3601 156.396 106.736 155.608C100.472 159.46 92.7481 161.056 83.3961 160.132C90.2561 163.444 98.1601 164.324 106.704 163.708C100.092 167.548 92.2641 168.96 83.6841 168.872C92.1321 166.5 99.9001 163.448 106.668 159.396C97.8441 160.216 89.8761 158.948 83.0161 154.996C93.6801 157.404 101 155.484 106.892 151.716C98.1161 153.24 89.9161 151.184 82.0961 146.78C91.7921 146.928 100.572 145.968 107.464 142.748" stroke="#F8F9F8" stroke-width="1.5" stroke-miterlimit="22.9256" stroke-linecap="round" stroke-linejoin="round"/>
</g>
<defs>
<clipPath id="clip0_53_368">
<rect width="200" height="200" fill="white"/>
</clipPath>
</defs>
</svg>
