<svg width="982" height="167" viewBox="0 0 982 167" fill="none" xmlns="http://www.w3.org/2000/svg">
<g clip-path="url(#clip0_287_691)">
<path d="M807.853 119.856C793.206 119.856 787.702 129 776 129C763.261 129 753.5 112.5 741.735 118.26C729.97 124.02 711.272 156 686 156C663.345 156 648.588 127.26 633.412 124.911C618.236 122.561 610.148 138 596 138C583.261 138 575 131 561.735 127.26C548.47 123.52 526.272 156 501 156C472.99 156 458 129 447.853 119.856C437.707 110.712 427.703 129 416 129C403.261 129 391 116 381.735 118.26C372.47 120.52 351.272 156 326 156C303.345 156 288.588 135 273.412 124.911C258.236 114.822 250.149 138 236 138C223.261 138 218.5 124.911 201.735 127.26C184.97 129.609 171.272 152 146 152C117.99 152 105.5 131 87.8533 119.856C70.2067 108.712 67.7026 129 56 129C43.2613 129 38 122 21.7351 118.26C5.47028 114.52 -8.72818 156 -34 156V36C-21.2613 36 -15.4703 41.9799 0.264858 46.7399C16 51.5 30.7282 9 56 9C84.0095 9 103.793 52.5484 114.147 54.1441C124.5 55.7399 134.297 45 146 45C158.739 45 162.03 55.7399 180.265 55.7399C198.5 55.7399 210.728 18 236 18C258.655 18 268.176 44.6785 288.588 49.0892C309 53.5 311.851 36 326 36C338.739 36 343.53 44.3906 360.265 46.7399C377 49.0892 390.728 9 416 9C444.009 9 464.293 49.2883 474.147 54.1441C484 59 494.297 45 506 45C518.739 45 526.029 57.3357 540.265 55.7399C554.5 54.1441 570.728 18 596 18C618.655 18 632.676 44.1785 648.588 49.0892C664.5 54 671.851 36 686 36C698.739 36 698.794 46.7399 720.265 46.7399C741.735 46.7399 750.728 9 776 9C804.009 9 817.293 48.634 834.146 54.1441C851 59.6543 854.297 45 866 45C878.739 45 888 60.3393 900.265 55.7399C912.529 51.1406 930.728 18 956 18C989.137 18 1016 44.8629 1016 78C1016 111.137 989.137 138 956 138C943.261 138 933.47 123.02 921.735 127.26C910 131.5 894.272 158.5 869 158.5C840.99 158.5 822.5 119.856 807.853 119.856Z" fill="#E6C381"/>
</g>
<defs>
<clipPath id="clip0_287_691">
<rect width="982" height="167" fill="white"/>
</clipPath>
</defs>
</svg>
