<svg width="200" height="201" viewBox="0 0 200 201" fill="none" xmlns="http://www.w3.org/2000/svg">
<g clip-path="url(#clip0_315_817)">
<path d="M68.0123 89.1408C52.6203 93.2688 15.2003 86.6168 10.0323 73.0048C9.82832 72.4648 9.84032 71.8168 10.0323 71.2688C10.3403 70.3848 11.5083 69.7928 11.4763 68.8608C11.4363 67.6688 11.2403 65.7568 12.3483 65.3088C34.5923 56.3688 61.1643 73.2528 74.7203 78.9848" stroke="#F8F9F8" stroke-width="2.36" stroke-miterlimit="22.9256"/>
<path d="M122.908 119.977C138.244 145.025 174.932 158.709 181.78 155.409C182.3 155.161 182.74 154.681 182.976 154.153C183.36 153.297 182.92 152.065 183.588 151.409C184.436 150.573 185.896 149.317 185.4 148.237C182.624 142.173 178.708 137.181 174.068 132.945C169.424 128.705 164.052 125.225 158.364 122.185" stroke="#F8F9F8" stroke-width="2.36" stroke-miterlimit="22.9256"/>
<path d="M71.8443 115.657C44.1483 125.437 27.8443 156.237 29.6403 163.621C29.7763 164.185 30.1563 164.713 30.6243 165.053C31.3763 165.609 32.6763 165.433 33.1803 166.221C33.8203 167.229 34.7403 168.917 35.9043 168.657C61.6484 162.917 76.8203 143.393 80.8163 123.229" stroke="#F8F9F8" stroke-width="2.36" stroke-miterlimit="22.9256"/>
<path d="M61.3603 156.269C54.7843 173.053 57.0123 185.993 61.4363 193.229C61.9203 194.021 63.2163 192.057 64.0883 192.373C64.8483 192.649 64.3243 194.389 65.1123 194.565C65.9043 194.741 66.2003 192.937 67.0083 193.033C67.7603 193.121 67.6563 195.397 68.2483 194.929C89.9603 177.697 89.0803 148.845 90.2843 127.861" stroke="#F8F9F8" stroke-width="2.36" stroke-miterlimit="22.9256"/>
<path d="M99.256 129.445C97.056 139.033 91.816 199.061 107.628 198.645C107.984 198.637 108.16 197.273 109.196 197.181C110.12 197.101 110.504 198.913 111.236 198.453C117.224 194.669 124.444 159.429 108.376 130.157" stroke="#F8F9F8" stroke-width="2.36" stroke-miterlimit="22.9256"/>
<path d="M74.4321 189.065C74.5601 194.085 76.0161 197.425 79.5761 200.113C80.8161 201.049 82.6041 199.301 84.1561 199.289C85.1201 199.281 86.0401 200.365 86.9521 200.053C90.6481 198.773 96.6881 192.221 98.1281 184.109" stroke="#F8F9F8" stroke-width="2.36" stroke-miterlimit="22.9256"/>
<path d="M115.636 124.805C121.14 135.821 155.752 183.537 169.52 177.365C170.108 177.101 169.372 175.573 169.704 175.017C170.108 174.345 171.72 174.773 171.824 173.993C173.092 164.761 169.184 158.693 164.072 152.205" stroke="#F8F9F8" stroke-width="2.36" stroke-miterlimit="22.9256"/>
<path d="M117.108 156.421C123.568 170.541 131.7 181.257 141.74 187.581C142.716 188.197 143.336 186.065 144.388 185.837C145.244 185.649 146.932 187.257 147.476 186.569C151.904 181.025 150.536 172.333 148.532 166.981" stroke="#F8F9F8" stroke-width="2.36" stroke-miterlimit="22.9256"/>
<path d="M130.288 111.429C145.324 121.521 180.56 131.121 193.3 122.185C193.788 121.845 193.052 120.941 193.3 120.405C193.488 119.997 194.468 120.149 194.448 119.701C194.412 118.885 193.34 118.401 193.172 117.601C193.004 116.805 194.064 115.757 193.492 115.181C179.984 101.601 155.34 98.0128 132.216 98.9408" stroke="#F8F9F8" stroke-width="2.36" stroke-miterlimit="22.9256"/>
<path d="M181.34 106.721C188.608 104.709 192.236 102.257 197.044 98.9409C197.84 98.3929 196.632 96.9929 196.82 96.0449C196.98 95.2449 198.132 94.7409 198.048 93.9289C197.98 93.3129 196.772 93.4729 196.488 92.9249C196.244 92.4609 197.152 91.6489 196.708 91.3649C178.944 80.0649 145.424 87.6329 132.652 89.7769" stroke="#F8F9F8" stroke-width="2.36" stroke-miterlimit="22.9256"/>
<path d="M171.096 85.3129C179.644 82.2049 188.64 77.6729 193.06 68.9609C193.604 67.8809 190.812 67.6369 190.384 66.5049C190.096 65.7569 191.632 64.9929 191.276 64.2769C190.912 63.5489 189.372 64.2889 188.932 63.6049C188.428 62.8249 189.964 60.9649 189.044 60.8209C163.284 56.7369 144.184 67.3089 127.104 74.7369" stroke="#F8F9F8" stroke-width="2.36" stroke-miterlimit="22.9256"/>
<path d="M115.512 66.2009C121.624 52.5929 135.264 34.8009 157.704 27.6889C159.096 27.2449 158.876 30.4969 160.012 31.4049C160.944 32.1529 163.512 31.1129 163.476 32.3049C162.992 49.2529 154.584 59.6569 124.936 74.0969" stroke="#F8F9F8" stroke-width="2.36" stroke-miterlimit="22.9256"/>
<path d="M161.964 42.3328C168.972 38.7888 176.224 35.5608 183.728 36.9128C184.644 37.0768 184.356 38.7328 185.016 39.3808C185.36 39.7248 186.14 39.2368 186.456 39.6048C186.848 40.0568 186.384 40.8928 186.736 41.3808C187.008 41.7568 187.984 41.3608 188.064 41.8248C188.196 42.5728 187.116 43.1728 187.176 43.9288C187.24 44.6768 188.708 45.1328 188.4 45.8168C185.456 52.3248 181.292 56.7048 177.568 59.9128" stroke="#F8F9F8" stroke-width="2.36" stroke-miterlimit="22.9256"/>
<path d="M127.668 47.5128C133.452 31.7528 134.96 16.6728 126.036 2.94079C125.508 2.13279 124.236 3.65679 123.32 3.96079C122.536 4.22079 121.104 3.83279 120.944 4.64079C116.356 27.6368 108.108 45.8248 106.564 63.5368" stroke="#F8F9F8" stroke-width="2.36" stroke-miterlimit="22.9256"/>
<path d="M95.4323 64.1208C95.4763 53.3408 89.6283 19.6088 103.328 6.01678C104.14 5.20878 105.1 7.61278 106.216 7.88478C107.108 8.10078 108.196 6.82078 108.932 7.37678C112.856 10.3408 115.704 14.3568 117.076 20.6928" stroke="#F8F9F8" stroke-width="2.36" stroke-miterlimit="22.9256"/>
<path d="M131.656 16.8089C133.4 13.7689 139.072 10.9009 141.32 11.6449C143.532 12.3769 143.112 14.8689 144.344 15.3369C144.96 15.5689 147.232 15.2529 147.632 16.2529C149.304 20.4369 146.64 28.2009 145.256 33.1369" stroke="#F8F9F8" stroke-width="2.36" stroke-miterlimit="22.9256"/>
<path d="M79.712 73.3367C70.648 67.0087 45.388 51.0287 42.116 25.2087C41.984 24.1687 44.66 23.8527 45.292 23.0167C45.932 22.1647 44.568 17.1047 46.624 17.5607C64.608 21.5647 78.412 34.8007 87.228 66.8367" stroke="#F8F9F8" stroke-width="2.36" stroke-miterlimit="22.9256"/>
<path d="M32.624 63.1769C25.828 58.1609 18.784 52.1089 17.936 42.7249C17.78 40.9649 22.412 41.4569 22.804 40.6129C23.264 39.6169 20.396 37.8769 21.46 37.6049C31.736 34.9769 40.088 38.6649 48.072 42.6889" stroke="#F8F9F8" stroke-width="2.36" stroke-miterlimit="22.9256"/>
<path d="M19.5322 82.0808C14.2042 82.2608 9.31619 83.2248 5.56419 86.3208C4.10019 87.5288 7.86419 89.4288 8.44419 91.2328C8.72419 92.1048 7.36019 93.3128 8.02019 93.9448C25.2922 110.525 46.1602 103.453 66.3802 98.1608" stroke="#F8F9F8" stroke-width="2.36" stroke-miterlimit="22.9256"/>
<path d="M66.844 105.697C46.844 113.945 14.308 124.861 6.98404 131.661C6.53204 132.081 7.95604 133.565 7.99204 134.621C8.00004 134.917 6.98804 136.605 7.43604 137.957C8.19204 140.213 31.824 140.561 44.628 134.505" stroke="#F8F9F8" stroke-width="2.36" stroke-miterlimit="22.9256"/>
<path d="M14.9682 99.2888C10.9802 101.693 6.2602 103.169 3.0082 106.501C2.1362 107.397 4.8442 108.661 4.6202 109.893C4.4162 111.017 1.5682 111.037 1.9922 112.097C6.3362 122.953 19.4002 120.881 29.7602 120.189" stroke="#F8F9F8" stroke-width="2.36" stroke-miterlimit="22.9256"/>
<path d="M76.1443 39.6529C72.7323 26.9689 70.7643 6.47285 77.0163 1.21285C78.1923 0.224848 79.0323 2.82485 81.1083 2.50485C82.1003 2.34885 82.5003 0.208848 83.4843 0.400848C90.1523 1.71685 93.7883 10.7648 96.9003 17.3088" stroke="#F8F9F8" stroke-width="2.36" stroke-miterlimit="22.9256"/>
<path fill-rule="evenodd" clip-rule="evenodd" d="M74.6162 116.905C73.9842 116.029 72.4042 116.313 71.6842 115.505C71.2002 114.965 71.8482 113.933 71.4282 113.341C70.7482 112.373 69.0242 112.285 68.6282 111.173C68.2562 110.137 69.8602 109.037 69.5202 107.989C69.1562 106.873 67.4802 106.681 66.8442 105.697C66.5442 105.229 67.1682 104.553 66.9722 104.037C66.2122 102.073 65.0602 101.925 65.3162 99.8328C65.4842 98.4568 67.0162 97.8768 67.8642 96.7768C68.5322 95.9048 66.1002 94.6448 66.4762 93.6088C66.7842 92.7648 68.1442 92.5648 68.3882 91.7008C68.6682 90.7048 67.7322 89.6808 68.0962 88.7128C68.4322 87.8328 71.3322 87.7528 71.5562 86.8408C71.8482 85.6368 70.2562 84.4768 70.5362 83.2728C70.7642 82.3048 72.4402 82.2728 72.8322 81.3608C73.1682 80.5728 71.9162 79.4848 72.4482 78.8128C72.9242 78.2128 74.2322 79.5088 74.7402 78.9408C75.3402 78.2768 74.1242 76.9088 74.7402 76.2648C75.4562 75.5208 77.1162 76.5328 77.8002 75.7568C78.3922 75.0848 76.9922 73.7808 77.5442 73.0808C77.9962 72.5088 79.0882 73.7128 79.7122 73.3368C80.5082 72.8488 80.2642 71.3048 81.1122 70.9128C81.7482 70.6208 82.4202 72.1648 83.0242 71.8048C83.9722 71.2448 83.5762 69.3848 84.5522 68.8768C85.1682 68.5528 85.6562 70.5728 86.2082 70.1488C87.1282 69.4488 86.2482 67.4488 87.2282 66.8368C87.9242 66.4008 88.6922 68.8328 89.2642 68.2368C90.4962 66.9608 89.2962 64.0888 90.7962 63.1408C91.8922 62.4488 92.8122 65.1808 94.1082 65.1808C95.2282 65.1808 95.6762 62.9568 96.7842 63.1408C97.8962 63.3288 97.5682 66.0568 98.6922 65.9448C100.248 65.7928 100.46 62.8528 102.004 62.6328C102.964 62.4968 102.2 65.1168 103.152 65.3088C104.38 65.5528 105.212 63.4888 106.464 63.5248C107.256 63.5448 107.076 65.3928 107.868 65.4368C109.1 65.5008 109.988 63.4528 111.18 63.7808C112.316 64.0928 111.932 66.2608 112.964 66.8368C113.724 67.2648 114.88 65.5928 115.512 66.2008C116.412 67.0648 115.096 69.2168 116.148 69.8968C117.128 70.5288 118.496 68.0888 119.46 68.7488C120.312 69.3288 118.16 71.1408 118.952 71.8048C119.9 72.6008 121.488 70.9808 122.644 71.4248C123.74 71.8448 123.996 73.3968 124.936 74.0968C125.54 74.5488 126.632 74.1488 127.104 74.7368C127.64 75.4088 127.204 76.4728 127.488 77.2848C127.848 78.3248 128.288 79.3888 129.016 80.2128C129.608 80.8848 130.928 80.8048 131.308 81.6168C131.692 82.4328 130.696 83.4208 130.924 84.2928C131.276 85.6168 132.732 86.5088 132.964 87.8568C133.184 89.1368 132.176 90.3808 132.2 91.6808C132.22 92.6608 133.112 93.5048 133.092 94.4848C133.068 95.5168 132.204 96.3888 132.072 97.4128C131.944 98.4288 132.5 99.4648 132.328 100.473C132.192 101.277 131.324 101.833 131.18 102.637C131.052 103.361 131.876 104.141 131.564 104.805C131.064 105.861 129.236 106.073 129.016 107.225C128.74 108.661 130.288 109.965 130.288 111.429C130.288 112.229 129.34 112.733 129.016 113.465C128.656 114.277 128.916 115.429 128.252 116.013C127.304 116.849 125.64 116.469 124.684 117.289C124.232 117.677 125.104 118.653 124.684 119.073C123.744 120.013 122.084 119.945 121.116 120.857C120.492 121.445 120.972 122.853 120.224 123.277C119.372 123.761 118.224 122.713 117.292 123.021C116.524 123.277 116.384 124.489 115.636 124.805C114.856 125.137 113.796 124.337 113.088 124.805C112.188 125.405 112.316 126.977 111.432 127.609C110.912 127.981 110.016 127.817 109.524 128.229C108.748 128.873 109.308 129.769 108.376 130.157C107.108 130.681 105.672 129.577 104.3 129.517C103.608 129.489 102.948 129.957 102.26 129.901C101.824 129.865 101.552 129.277 101.112 129.265C99.8722 129.233 98.6522 129.605 97.4202 129.773C96.1882 129.945 94.9522 130.469 93.7242 130.285C93.1002 130.189 92.8402 129.373 92.3242 129.009C91.6842 128.561 90.9482 128.273 90.2842 127.861C89.7162 127.509 89.2842 126.849 88.6282 126.717C87.5482 126.493 86.3362 127.265 85.3162 126.845C84.3962 126.465 84.1802 125.173 83.4042 124.549C82.6202 123.921 81.4322 123.873 80.7282 123.149C80.0042 122.401 80.1922 120.933 79.3282 120.345C78.5202 119.797 77.1962 120.785 76.4002 120.217C75.8442 119.825 76.8482 118.545 76.2722 118.181C75.6082 117.761 74.5962 119.165 73.9762 118.689C73.4762 118.305 74.9842 117.417 74.6162 116.905Z" stroke="#F8F9F8" stroke-width="2.36" stroke-miterlimit="22.9256"/>
<path d="M80.0324 102.357C81.6119 102.357 82.8924 101.076 82.8924 99.4967C82.8924 97.9172 81.6119 96.6367 80.0324 96.6367C78.4528 96.6367 77.1724 97.9172 77.1724 99.4967C77.1724 101.076 78.4528 102.357 80.0324 102.357Z" stroke="#F8F9F8" stroke-width="2.36" stroke-miterlimit="22.9256"/>
<path d="M87.4084 105.701C88.6787 105.701 89.7084 104.671 89.7084 103.401C89.7084 102.131 88.6787 101.101 87.4084 101.101C86.1381 101.101 85.1084 102.131 85.1084 103.401C85.1084 104.671 86.1381 105.701 87.4084 105.701Z" stroke="#F8F9F8" stroke-width="2.36" stroke-miterlimit="22.9256"/>
<path d="M93.2961 117.497C94.9684 117.497 96.3241 116.141 96.3241 114.469C96.3241 112.797 94.9684 111.441 93.2961 111.441C91.6238 111.441 90.2681 112.797 90.2681 114.469C90.2681 116.141 91.6238 117.497 93.2961 117.497Z" stroke="#F8F9F8" stroke-width="2.36" stroke-miterlimit="22.9256"/>
<path d="M107.276 113.449C108.546 113.449 109.576 112.419 109.576 111.149C109.576 109.879 108.546 108.849 107.276 108.849C106.006 108.849 104.976 109.879 104.976 111.149C104.976 112.419 106.006 113.449 107.276 113.449Z" stroke="#F8F9F8" stroke-width="2.36" stroke-miterlimit="22.9256"/>
<path d="M114.236 104.669C115.321 104.669 116.2 103.789 116.2 102.705C116.2 101.62 115.321 100.741 114.236 100.741C113.151 100.741 112.272 101.62 112.272 102.705C112.272 103.789 113.151 104.669 114.236 104.669Z" stroke="#F8F9F8" stroke-width="2.36" stroke-miterlimit="22.9256"/>
<path d="M118.672 119.421C119.85 119.421 120.804 118.466 120.804 117.289C120.804 116.111 119.85 115.157 118.672 115.157C117.495 115.157 116.54 116.111 116.54 117.289C116.54 118.466 117.495 119.421 118.672 119.421Z" stroke="#F8F9F8" stroke-width="2.36" stroke-miterlimit="22.9256"/>
<path d="M110.488 120.717C112.006 120.717 113.236 119.486 113.236 117.969C113.236 116.451 112.006 115.221 110.488 115.221C108.971 115.221 107.74 116.451 107.74 117.969C107.74 119.486 108.971 120.717 110.488 120.717Z" stroke="#F8F9F8" stroke-width="2.36" stroke-miterlimit="22.9256"/>
<path d="M114.764 113.193C115.973 113.193 116.952 112.213 116.952 111.005C116.952 109.796 115.973 108.817 114.764 108.817C113.556 108.817 112.576 109.796 112.576 111.005C112.576 112.213 113.556 113.193 114.764 113.193Z" stroke="#F8F9F8" stroke-width="2.36" stroke-miterlimit="22.9256"/>
<path d="M122.996 101.689C124.39 101.689 125.52 100.559 125.52 99.1649C125.52 97.7709 124.39 96.6409 122.996 96.6409C121.602 96.6409 120.472 97.7709 120.472 99.1649C120.472 100.559 121.602 101.689 122.996 101.689Z" stroke="#F8F9F8" stroke-width="2.36" stroke-miterlimit="22.9256"/>
<path d="M77.156 88.0007C78.519 88.0007 79.624 86.8957 79.624 85.5327C79.624 84.1697 78.519 83.0647 77.156 83.0647C75.7929 83.0647 74.688 84.1697 74.688 85.5327C74.688 86.8957 75.7929 88.0007 77.156 88.0007Z" stroke="#F8F9F8" stroke-width="2.36" stroke-miterlimit="22.9256"/>
<path d="M80.3202 93.5409C81.2503 93.5409 82.0042 92.7869 82.0042 91.8568C82.0042 90.9268 81.2503 90.1729 80.3202 90.1729C79.3902 90.1729 78.6362 90.9268 78.6362 91.8568C78.6362 92.7869 79.3902 93.5409 80.3202 93.5409Z" stroke="#F8F9F8" stroke-width="2.36" stroke-miterlimit="22.9256"/>
<path d="M84.4564 114.097C86.1906 114.097 87.5964 112.691 87.5964 110.957C87.5964 109.223 86.1906 107.817 84.4564 107.817C82.7222 107.817 81.3164 109.223 81.3164 110.957C81.3164 112.691 82.7222 114.097 84.4564 114.097Z" stroke="#F8F9F8" stroke-width="2.36" stroke-miterlimit="22.9256"/>
<path d="M86.0163 121.617C87.3794 121.617 88.4843 120.512 88.4843 119.149C88.4843 117.786 87.3794 116.681 86.0163 116.681C84.6533 116.681 83.5483 117.786 83.5483 119.149C83.5483 120.512 84.6533 121.617 86.0163 121.617Z" stroke="#F8F9F8" stroke-width="2.36" stroke-miterlimit="22.9256"/>
<path d="M101.876 118.925C103.116 118.925 104.12 117.92 104.12 116.681C104.12 115.441 103.116 114.437 101.876 114.437C100.637 114.437 99.6323 115.441 99.6323 116.681C99.6323 117.92 100.637 118.925 101.876 118.925Z" stroke="#F8F9F8" stroke-width="2.36" stroke-miterlimit="22.9256"/>
<path d="M94.948 125.485C96.4966 125.485 97.752 124.229 97.752 122.681C97.752 121.132 96.4966 119.877 94.948 119.877C93.3994 119.877 92.144 121.132 92.144 122.681C92.144 124.229 93.3994 125.485 94.948 125.485Z" stroke="#F8F9F8" stroke-width="2.36" stroke-miterlimit="22.9256"/>
<path d="M104.34 126.121C105.858 126.121 107.088 124.89 107.088 123.373C107.088 121.855 105.858 120.625 104.34 120.625C102.823 120.625 101.592 121.855 101.592 123.373C101.592 124.89 102.823 126.121 104.34 126.121Z" stroke="#F8F9F8" stroke-width="2.36" stroke-miterlimit="22.9256"/>
<path d="M121.872 111.329C123.328 111.329 124.508 110.149 124.508 108.693C124.508 107.237 123.328 106.057 121.872 106.057C120.417 106.057 119.236 107.237 119.236 108.693C119.236 110.149 120.417 111.329 121.872 111.329Z" stroke="#F8F9F8" stroke-width="2.36" stroke-miterlimit="22.9256"/>
<path d="M74.4201 96.2968C75.6904 96.2968 76.7201 95.267 76.7201 93.9968C76.7201 92.7265 75.6904 91.6968 74.4201 91.6968C73.1499 91.6968 72.1201 92.7265 72.1201 93.9968C72.1201 95.267 73.1499 96.2968 74.4201 96.2968Z" stroke="#F8F9F8" stroke-width="2.36" stroke-miterlimit="22.9256"/>
<path d="M76.0803 108.781C77.4433 108.781 78.5483 107.676 78.5483 106.313C78.5483 104.95 77.4433 103.845 76.0803 103.845C74.7173 103.845 73.6123 104.95 73.6123 106.313C73.6123 107.676 74.7173 108.781 76.0803 108.781Z" stroke="#F8F9F8" stroke-width="2.36" stroke-miterlimit="22.9256"/>
<path d="M84.1684 86.0729C85.3635 86.0729 86.3324 85.104 86.3324 83.9089C86.3324 82.7137 85.3635 81.7449 84.1684 81.7449C82.9733 81.7449 82.0044 82.7137 82.0044 83.9089C82.0044 85.104 82.9733 86.0729 84.1684 86.0729Z" stroke="#F8F9F8" stroke-width="2.36" stroke-miterlimit="22.9256"/>
<path d="M82.0323 79.9007C82.896 79.9007 83.5963 79.2005 83.5963 78.3367C83.5963 77.4729 82.896 76.7727 82.0323 76.7727C81.1685 76.7727 80.4683 77.4729 80.4683 78.3367C80.4683 79.2005 81.1685 79.9007 82.0323 79.9007Z" stroke="#F8F9F8" stroke-width="2.36" stroke-miterlimit="22.9256"/>
<path d="M95.7843 104.525C97.3639 104.525 98.6443 103.244 98.6443 101.665C98.6443 100.085 97.3639 98.8047 95.7843 98.8047C94.2048 98.8047 92.9243 100.085 92.9243 101.665C92.9243 103.244 94.2048 104.525 95.7843 104.525Z" stroke="#F8F9F8" stroke-width="2.36" stroke-miterlimit="22.9256"/>
<path d="M105.864 103.265C107.444 103.265 108.724 101.984 108.724 100.405C108.724 98.8254 107.444 97.5449 105.864 97.5449C104.285 97.5449 103.004 98.8254 103.004 100.405C103.004 101.984 104.285 103.265 105.864 103.265Z" stroke="#F8F9F8" stroke-width="2.36" stroke-miterlimit="22.9256"/>
<path d="M93.6561 95.7568C95.3903 95.7568 96.7961 94.351 96.7961 92.6168C96.7961 90.8826 95.3903 89.4768 93.6561 89.4768C91.9219 89.4768 90.5161 90.8826 90.5161 92.6168C90.5161 94.351 91.9219 95.7568 93.6561 95.7568Z" stroke="#F8F9F8" stroke-width="2.36" stroke-miterlimit="22.9256"/>
<path d="M99.38 111.101C100.465 111.101 101.344 110.222 101.344 109.137C101.344 108.052 100.465 107.173 99.38 107.173C98.2953 107.173 97.416 108.052 97.416 109.137C97.416 110.222 98.2953 111.101 99.38 111.101Z" stroke="#F8F9F8" stroke-width="2.36" stroke-miterlimit="22.9256"/>
<path d="M109.384 94.9329C110.469 94.9329 111.348 94.0536 111.348 92.9689C111.348 91.8842 110.469 91.0049 109.384 91.0049C108.3 91.0049 107.42 91.8842 107.42 92.9689C107.42 94.0536 108.3 94.9329 109.384 94.9329Z" stroke="#F8F9F8" stroke-width="2.36" stroke-miterlimit="22.9256"/>
<path d="M101.464 90.6768C102.549 90.6768 103.428 89.7975 103.428 88.7128C103.428 87.6281 102.549 86.7488 101.464 86.7488C100.379 86.7488 99.5 87.6281 99.5 88.7128C99.5 89.7975 100.379 90.6768 101.464 90.6768Z" stroke="#F8F9F8" stroke-width="2.36" stroke-miterlimit="22.9256"/>
<path d="M126.308 94.3208C127.393 94.3208 128.272 93.4415 128.272 92.3568C128.272 91.2721 127.393 90.3928 126.308 90.3928C125.224 90.3928 124.344 91.2721 124.344 92.3568C124.344 93.4415 125.224 94.3208 126.308 94.3208Z" stroke="#F8F9F8" stroke-width="2.36" stroke-miterlimit="22.9256"/>
<path d="M86.6523 97.2528C87.5823 97.2528 88.3363 96.4988 88.3363 95.5688C88.3363 94.6387 87.5823 93.8848 86.6523 93.8848C85.7222 93.8848 84.9683 94.6387 84.9683 95.5688C84.9683 96.4988 85.7222 97.2528 86.6523 97.2528Z" stroke="#F8F9F8" stroke-width="2.36" stroke-miterlimit="22.9256"/>
<path d="M89.912 80.0767C90.8421 80.0767 91.596 79.3228 91.596 78.3927C91.596 77.4627 90.8421 76.7087 89.912 76.7087C88.982 76.7087 88.228 77.4627 88.228 78.3927C88.228 79.3228 88.982 80.0767 89.912 80.0767Z" stroke="#F8F9F8" stroke-width="2.36" stroke-miterlimit="22.9256"/>
<path d="M92.7682 86.4729C93.8529 86.4729 94.7322 85.5936 94.7322 84.5089C94.7322 83.4242 93.8529 82.5449 92.7682 82.5449C91.6835 82.5449 90.8042 83.4242 90.8042 84.5089C90.8042 85.5936 91.6835 86.4729 92.7682 86.4729Z" stroke="#F8F9F8" stroke-width="2.36" stroke-miterlimit="22.9256"/>
<path d="M104.344 76.1929C105.429 76.1929 106.308 75.3136 106.308 74.2289C106.308 73.1442 105.429 72.2649 104.344 72.2649C103.26 72.2649 102.38 73.1442 102.38 74.2289C102.38 75.3136 103.26 76.1929 104.344 76.1929Z" stroke="#F8F9F8" stroke-width="2.36" stroke-miterlimit="22.9256"/>
<path d="M97.5804 80.8847C99.3146 80.8847 100.72 79.4789 100.72 77.7447C100.72 76.0106 99.3146 74.6047 97.5804 74.6047C95.8463 74.6047 94.4404 76.0106 94.4404 77.7447C94.4404 79.4789 95.8463 80.8847 97.5804 80.8847Z" stroke="#F8F9F8" stroke-width="2.36" stroke-miterlimit="22.9256"/>
<path d="M119.176 92.8528C120.91 92.8528 122.316 91.4469 122.316 89.7128C122.316 87.9786 120.91 86.5728 119.176 86.5728C117.442 86.5728 116.036 87.9786 116.036 89.7128C116.036 91.4469 117.442 92.8528 119.176 92.8528Z" stroke="#F8F9F8" stroke-width="2.36" stroke-miterlimit="22.9256"/>
<path d="M121.648 84.1367C123.382 84.1367 124.788 82.7309 124.788 80.9967C124.788 79.2625 123.382 77.8567 121.648 77.8567C119.914 77.8567 118.508 79.2625 118.508 80.9967C118.508 82.7309 119.914 84.1367 121.648 84.1367Z" stroke="#F8F9F8" stroke-width="2.36" stroke-miterlimit="22.9256"/>
<path d="M112.804 86.3289C114.384 86.3289 115.664 85.0484 115.664 83.4689C115.664 81.8893 114.384 80.6089 112.804 80.6089C111.225 80.6089 109.944 81.8893 109.944 83.4689C109.944 85.0484 111.225 86.3289 112.804 86.3289Z" stroke="#F8F9F8" stroke-width="2.36" stroke-miterlimit="22.9256"/>
<path d="M112.28 77.6128C113.86 77.6128 115.14 76.3324 115.14 74.7528C115.14 73.1733 113.86 71.8928 112.28 71.8928C110.701 71.8928 109.42 73.1733 109.42 74.7528C109.42 76.3324 110.701 77.6128 112.28 77.6128Z" stroke="#F8F9F8" stroke-width="2.36" stroke-miterlimit="22.9256"/>
<path d="M104.344 83.4807C105.429 83.4807 106.308 82.6014 106.308 81.5167C106.308 80.432 105.429 79.5527 104.344 79.5527C103.26 79.5527 102.38 80.432 102.38 81.5167C102.38 82.6014 103.26 83.4807 104.344 83.4807Z" stroke="#F8F9F8" stroke-width="2.36" stroke-miterlimit="22.9256"/>
<path d="M91.8561 73.9849C92.9408 73.9849 93.8201 73.1056 93.8201 72.0209C93.8201 70.9362 92.9408 70.0569 91.8561 70.0569C90.7714 70.0569 89.8921 70.9362 89.8921 72.0209C89.8921 73.1056 90.7714 73.9849 91.8561 73.9849Z" stroke="#F8F9F8" stroke-width="2.36" stroke-miterlimit="22.9256"/>
</g>
<defs>
<clipPath id="clip0_315_817">
<rect width="200" height="200" fill="white" transform="translate(0 0.388916)"/>
</clipPath>
</defs>
</svg>
