<svg width="344" height="62" viewBox="0 0 344 62" fill="none" xmlns="http://www.w3.org/2000/svg">
<g clip-path="url(#clip0_49_186)">
<path d="M52.5879 40.364C54.1087 39.9123 55.5241 39.2285 56.768 38.2373C58.7696 36.642 58.8158 32.7961 56.0352 30.971" stroke="#F8F9F8" stroke-width="1.5" stroke-miterlimit="22.9256" stroke-linecap="round" stroke-linejoin="round"/>
<path d="M40.6558 44.7082C45.2611 47.879 49.7519 50.3937 52.3131 44.9339C55.5325 38.0714 48.4895 39.4994 42.827 40.2252" stroke="#F8F9F8" stroke-width="1.5" stroke-miterlimit="22.9256" stroke-linecap="round" stroke-linejoin="round"/>
<path d="M35.6016 48.7965C37.5747 53.8299 39.4623 60.0037 45.1401 54.9586C50.9446 49.8008 45.2926 47.1736 40.4403 44.8511" stroke="#F8F9F8" stroke-width="1.5" stroke-miterlimit="22.9256" stroke-linecap="round" stroke-linejoin="round"/>
<path d="M35.0544 49.0869C37.4351 53.536 39.9831 59.9513 32.7312 59.9024C25.5398 59.8545 27.0461 55.2019 28.9432 50.67" stroke="#F8F9F8" stroke-width="1.5" stroke-miterlimit="22.9256" stroke-linecap="round" stroke-linejoin="round"/>
<path d="M28.9433 50.67C26.5115 56.3848 21.5986 64.3629 17.7672 60.9325C13.9101 57.4791 19.5264 51.6549 24.1389 48.7423" stroke="#F8F9F8" stroke-width="1.5" stroke-miterlimit="22.9256" stroke-linecap="round" stroke-linejoin="round"/>
<path d="M24.6952 25.0826C20.4983 22.4843 16.1364 22.0909 14.2442 23.9666C7.5812 30.5722 20.0365 33.4717 24.5649 37.8566" stroke="#F8F9F8" stroke-width="1.5" stroke-miterlimit="22.9256" stroke-linecap="round" stroke-linejoin="round"/>
<path d="M13.4051 30.4044C9.99302 30.3203 6.69453 31.3409 5.43837 34.8821C4.86932 36.4864 5.4931 39.2995 6.84833 40.3369" stroke="#F8F9F8" stroke-width="1.5" stroke-miterlimit="22.9256" stroke-linecap="round" stroke-linejoin="round"/>
<path d="M22.3341 45.7469C14.0693 48.0029 4.62299 51.3482 2.79055 48.5229C-0.17095 43.9562 5.90629 40.4454 9.19031 39.6025C13.9218 38.3879 18.2707 39.7639 22.852 40.8967" stroke="#F8F9F8" stroke-width="1.5" stroke-miterlimit="22.9256" stroke-linecap="round" stroke-linejoin="round"/>
<path d="M8.19351 49.3993C4.06225 52.6338 6.07111 56.8505 8.92088 56.7583C14.4037 56.581 18.4138 51.2429 23.6867 48.4922" stroke="#F8F9F8" stroke-width="1.5" stroke-miterlimit="22.9256" stroke-linecap="round" stroke-linejoin="round"/>
<path d="M50.6507 23.0726C53.9162 20.0063 55.6957 17.9949 52.8672 15.8963C46.8506 11.4322 38.7419 19.9131 36.7896 32.6103" stroke="#F8F9F8" stroke-width="1.5" stroke-miterlimit="22.9256" stroke-linecap="round" stroke-linejoin="round"/>
<path d="M29.6707 33.847C24.5353 27.7026 22.1275 20.4747 27.0155 17.2474C31.8515 14.055 35.2635 23.8644 35.6159 32.7138" stroke="#F8F9F8" stroke-width="1.5" stroke-miterlimit="22.9256" stroke-linecap="round" stroke-linejoin="round"/>
<path d="M32.6831 19.3352C33.9587 14.6943 37.0184 12.2299 40.8217 13.2148C43.249 13.8438 43.6642 15.4283 43.1345 17.9963" stroke="#F8F9F8" stroke-width="1.5" stroke-miterlimit="22.9256" stroke-linecap="round" stroke-linejoin="round"/>
<path d="M40.0981 33.6865C42.6172 29.2021 50.2365 17.4419 57.4455 26.2592C60.9851 30.5894 49.2369 34.523 42.454 36.4485" stroke="#F8F9F8" stroke-width="1.5" stroke-miterlimit="22.9256" stroke-linecap="round" stroke-linejoin="round"/>
<path d="M35.9375 48.5779C41.3368 45.6188 44.176 40.0331 42.279 36.1019C40.382 32.1708 34.4672 31.3828 29.0679 34.342C23.6685 37.3011 20.8293 42.8868 22.7263 46.818C24.6233 50.7491 30.5382 51.5371 35.9375 48.5779Z" stroke="#F8F9F8" stroke-width="1.5" stroke-miterlimit="22.9256" stroke-linecap="round" stroke-linejoin="round"/>
<path d="M30.5814 37.9692C21.482 45.4752 38.6557 43.9761 37.6614 36.6732" stroke="#F8F9F8" stroke-width="1.5" stroke-miterlimit="22.9256" stroke-linecap="round" stroke-linejoin="round"/>
<path d="M47.6177 48.1078C63.1376 60.3396 81.5272 58.7506 100.339 55.1285" stroke="#F8F9F8" stroke-width="1.5" stroke-miterlimit="22.9256" stroke-linecap="round" stroke-linejoin="round"/>
<path fill-rule="evenodd" clip-rule="evenodd" d="M83.6749 57.5148C70.1331 55.3886 74.9618 49.9293 70.9658 42.3351C79.5368 42.1574 82.9358 50.8915 83.6749 57.5148Z" stroke="#F8F9F8" stroke-width="1.5" stroke-miterlimit="22.9256" stroke-linecap="round" stroke-linejoin="round"/>
<path d="M70.9658 42.3351C76.5862 45.9789 80.9812 50.7242 83.1895 57.4361" stroke="#F8F9F8" stroke-width="1.5" stroke-miterlimit="22.9256" stroke-linecap="round" stroke-linejoin="round"/>
</g>
<path d="M97.504 12.344V12.984C96.7787 13.0053 96.224 13.0907 95.84 13.24C95.4773 13.368 95.232 13.624 95.104 14.008C94.976 14.3707 94.912 14.9467 94.912 15.736V31.608C94.912 32.376 94.976 32.952 95.104 33.336C95.232 33.72 95.4773 33.976 95.84 34.104C96.224 34.2107 96.7787 34.264 97.504 34.264H99.84C100.843 34.264 101.653 34.1573 102.272 33.944C102.912 33.7307 103.413 33.4 103.776 32.952C104.16 32.4827 104.448 31.864 104.64 31.096C104.832 30.328 104.981 29.3893 105.088 28.28H105.824C105.76 28.9413 105.728 29.816 105.728 30.904C105.728 31.3093 105.739 31.896 105.76 32.664C105.803 33.4107 105.867 34.1893 105.952 35C104.864 34.9573 103.637 34.936 102.272 34.936C100.907 34.9147 99.6907 34.904 98.624 34.904C98.1547 34.904 97.5467 34.904 96.8 34.904C96.0747 34.904 95.2853 34.9147 94.432 34.936C93.5787 34.936 92.7147 34.9467 91.84 34.968C90.9653 34.968 90.1333 34.9787 89.344 35V34.36C90.0693 34.3173 90.6133 34.232 90.976 34.104C91.36 33.976 91.616 33.72 91.744 33.336C91.872 32.952 91.936 32.376 91.936 31.608V15.736C91.936 14.9467 91.872 14.3707 91.744 14.008C91.616 13.624 91.36 13.368 90.976 13.24C90.6133 13.0907 90.0693 13.0053 89.344 12.984V12.344C89.792 12.3653 90.3787 12.3867 91.104 12.408C91.8293 12.4293 92.608 12.44 93.44 12.44C94.1867 12.44 94.9227 12.4293 95.648 12.408C96.3947 12.3867 97.0133 12.3653 97.504 12.344ZM117.149 12.184L124.957 32.312C125.277 33.1227 125.639 33.6667 126.045 33.944C126.45 34.2 126.823 34.3387 127.165 34.36V35C126.738 34.9573 126.215 34.936 125.597 34.936C124.978 34.9147 124.359 34.904 123.741 34.904C122.909 34.904 122.13 34.9147 121.405 34.936C120.679 34.936 120.093 34.9573 119.645 35V34.36C120.733 34.3173 121.426 34.136 121.725 33.816C122.023 33.4747 121.959 32.76 121.533 31.672L115.581 15.768L116.093 15.352L110.525 29.816C110.183 30.6693 109.981 31.3947 109.917 31.992C109.853 32.568 109.906 33.0267 110.077 33.368C110.269 33.7093 110.578 33.9547 111.005 34.104C111.453 34.2533 112.007 34.3387 112.669 34.36V35C112.071 34.9573 111.442 34.936 110.781 34.936C110.141 34.9147 109.543 34.904 108.989 34.904C108.455 34.904 107.997 34.9147 107.613 34.936C107.25 34.936 106.909 34.9573 106.588 35V34.36C107.015 34.2533 107.453 34.008 107.901 33.624C108.349 33.2187 108.754 32.536 109.117 31.576L116.637 12.184C116.722 12.184 116.807 12.184 116.893 12.184C116.978 12.184 117.063 12.184 117.149 12.184ZM121.053 25.784V26.424H111.516L111.837 25.784H121.053ZM161.466 12.344V12.984C160.74 13.0053 160.186 13.0907 159.802 13.24C159.439 13.368 159.194 13.624 159.066 14.008C158.938 14.3707 158.874 14.9467 158.874 15.736V31.608C158.874 32.376 158.938 32.952 159.066 33.336C159.194 33.72 159.439 33.976 159.802 34.104C160.186 34.232 160.74 34.3173 161.466 34.36V35C160.975 34.9573 160.356 34.936 159.61 34.936C158.884 34.9147 158.148 34.904 157.402 34.904C156.57 34.904 155.791 34.9147 155.066 34.936C154.34 34.936 153.754 34.9573 153.306 35V34.36C154.031 34.3173 154.575 34.232 154.938 34.104C155.322 33.976 155.578 33.72 155.706 33.336C155.834 32.952 155.898 32.376 155.898 31.608V14.008L156.026 14.104L148.186 35.16H147.674L139.61 14.392V31.288C139.61 32.056 139.674 32.664 139.802 33.112C139.951 33.5387 140.228 33.848 140.634 34.04C141.06 34.2107 141.69 34.3173 142.522 34.36V35C142.138 34.9573 141.636 34.936 141.018 34.936C140.399 34.9147 139.812 34.904 139.258 34.904C138.724 34.904 138.18 34.9147 137.626 34.936C137.092 34.936 136.644 34.9573 136.282 35V34.36C137.007 34.3173 137.551 34.2107 137.914 34.04C138.298 33.848 138.554 33.5387 138.682 33.112C138.81 32.664 138.874 32.056 138.874 31.288V15.736C138.874 14.9467 138.81 14.3707 138.682 14.008C138.554 13.624 138.298 13.368 137.914 13.24C137.551 13.0907 137.007 13.0053 136.282 12.984V12.344C136.644 12.3653 137.092 12.3867 137.626 12.408C138.18 12.4293 138.724 12.44 139.258 12.44C139.727 12.44 140.207 12.4293 140.698 12.408C141.21 12.3867 141.636 12.3653 141.978 12.344L149.242 31.48L148.698 31.736L155.898 12.44C156.154 12.44 156.399 12.44 156.634 12.44C156.89 12.44 157.146 12.44 157.402 12.44C158.148 12.44 158.884 12.4293 159.61 12.408C160.356 12.3867 160.975 12.3653 161.466 12.344ZM173.149 12.184L180.957 32.312C181.277 33.1227 181.639 33.6667 182.045 33.944C182.45 34.2 182.823 34.3387 183.165 34.36V35C182.738 34.9573 182.215 34.936 181.597 34.936C180.978 34.9147 180.359 34.904 179.741 34.904C178.909 34.904 178.13 34.9147 177.405 34.936C176.679 34.936 176.093 34.9573 175.645 35V34.36C176.733 34.3173 177.426 34.136 177.725 33.816C178.023 33.4747 177.959 32.76 177.533 31.672L171.581 15.768L172.093 15.352L166.525 29.816C166.183 30.6693 165.981 31.3947 165.917 31.992C165.853 32.568 165.906 33.0267 166.077 33.368C166.269 33.7093 166.578 33.9547 167.005 34.104C167.453 34.2533 168.007 34.3387 168.669 34.36V35C168.071 34.9573 167.442 34.936 166.781 34.936C166.141 34.9147 165.543 34.904 164.989 34.904C164.455 34.904 163.997 34.9147 163.613 34.936C163.25 34.936 162.909 34.9573 162.588 35V34.36C163.015 34.2533 163.453 34.008 163.901 33.624C164.349 33.2187 164.754 32.536 165.117 31.576L172.637 12.184C172.722 12.184 172.807 12.184 172.893 12.184C172.978 12.184 173.063 12.184 173.149 12.184ZM177.053 25.784V26.424H167.516L167.837 25.784H177.053ZM183.688 12.344C184.136 12.3653 184.722 12.3867 185.448 12.408C186.173 12.4293 186.888 12.44 187.592 12.44C188.594 12.44 189.554 12.4293 190.472 12.408C191.389 12.3867 192.04 12.376 192.424 12.376C194.152 12.376 195.581 12.6213 196.712 13.112C197.864 13.6027 198.717 14.2747 199.272 15.128C199.848 15.96 200.136 16.8987 200.136 17.944C200.136 18.584 200.008 19.2667 199.752 19.992C199.496 20.7173 199.048 21.4 198.408 22.04C197.789 22.68 196.936 23.2133 195.848 23.64C194.76 24.0453 193.384 24.248 191.72 24.248H188.648V23.608H191.4C192.914 23.608 194.066 23.3733 194.856 22.904C195.666 22.4133 196.21 21.7733 196.488 20.984C196.786 20.1733 196.936 19.2773 196.936 18.296C196.936 16.6107 196.53 15.3093 195.72 14.392C194.93 13.4533 193.565 12.984 191.624 12.984C190.642 12.984 190.002 13.1653 189.704 13.528C189.405 13.8907 189.256 14.6267 189.256 15.736V31.608C189.256 32.376 189.32 32.952 189.448 33.336C189.576 33.72 189.821 33.976 190.184 34.104C190.568 34.232 191.122 34.3173 191.848 34.36V35C191.357 34.9573 190.738 34.936 189.992 34.936C189.266 34.9147 188.53 34.904 187.784 34.904C186.952 34.904 186.173 34.9147 185.448 34.936C184.722 34.936 184.136 34.9573 183.688 35V34.36C184.413 34.3173 184.957 34.232 185.32 34.104C185.704 33.976 185.96 33.72 186.088 33.336C186.216 32.952 186.28 32.376 186.28 31.608V15.736C186.28 14.9467 186.216 14.3707 186.088 14.008C185.96 13.624 185.704 13.368 185.32 13.24C184.957 13.0907 184.413 13.0053 183.688 12.984V12.344ZM188.776 23.704C189.928 23.7467 190.834 23.8 191.496 23.864C192.157 23.9067 192.69 23.9493 193.096 23.992C193.522 24.0347 193.928 24.088 194.312 24.152C195.741 24.3867 196.765 24.824 197.384 25.464C198.024 26.0827 198.493 27.0533 198.792 28.376L199.592 31.64C199.805 32.5787 200.018 33.2613 200.232 33.688C200.466 34.0933 200.818 34.2853 201.288 34.264C201.65 34.2427 201.949 34.1253 202.184 33.912C202.44 33.6987 202.706 33.4107 202.984 33.048L203.464 33.4C203.016 34.0613 202.546 34.5733 202.056 34.936C201.586 35.2773 200.914 35.448 200.04 35.448C199.25 35.448 198.557 35.2133 197.96 34.744C197.362 34.2747 196.914 33.3573 196.616 31.992L195.912 28.792C195.72 27.8747 195.496 27.0853 195.24 26.424C195.005 25.7413 194.664 25.208 194.216 24.824C193.789 24.44 193.149 24.248 192.296 24.248H188.84L188.776 23.704ZM215.126 11.896C216.512 11.896 217.632 12.1093 218.486 12.536C219.339 12.9413 220.139 13.4213 220.886 13.976C221.163 14.1893 221.376 14.296 221.526 14.296C221.931 14.296 222.198 13.6453 222.326 12.344H223.062C223.019 13.1333 222.987 14.0933 222.966 15.224C222.944 16.3547 222.934 17.848 222.934 19.704H222.198C222.048 18.808 221.867 17.944 221.654 17.112C221.44 16.28 221.088 15.5653 220.598 14.968C219.979 14.1787 219.168 13.5707 218.166 13.144C217.163 12.696 216.128 12.472 215.062 12.472C213.995 12.472 213.024 12.7387 212.15 13.272C211.296 13.784 210.56 14.5307 209.942 15.512C209.323 16.4933 208.843 17.6773 208.502 19.064C208.182 20.4293 208.022 21.976 208.022 23.704C208.022 27.544 208.64 30.36 209.878 32.152C211.115 33.9227 213.035 34.808 215.638 34.808C216.406 34.808 217.067 34.7013 217.622 34.488C218.198 34.2533 218.646 34.0293 218.966 33.816C219.371 33.5387 219.627 33.2827 219.734 33.048C219.84 32.792 219.894 32.4613 219.894 32.056V28.984C219.894 28.1093 219.808 27.4587 219.638 27.032C219.467 26.6053 219.147 26.3173 218.678 26.168C218.23 26.0187 217.558 25.9333 216.662 25.912V25.272C217.046 25.2933 217.494 25.3147 218.006 25.336C218.518 25.336 219.051 25.3467 219.606 25.368C220.182 25.368 220.704 25.368 221.174 25.368C221.878 25.368 222.507 25.3573 223.062 25.336C223.638 25.3147 224.118 25.2933 224.502 25.272V25.912C224.032 25.9333 223.68 26.008 223.446 26.136C223.211 26.264 223.051 26.52 222.966 26.904C222.902 27.288 222.87 27.8747 222.87 28.664V35H222.23C222.208 34.6373 222.123 34.2427 221.974 33.816C221.846 33.3893 221.643 33.176 221.366 33.176C221.238 33.176 221.11 33.208 220.982 33.272C220.854 33.336 220.63 33.4853 220.31 33.72C219.606 34.2533 218.859 34.68 218.07 35C217.28 35.2987 216.363 35.448 215.318 35.448C213.12 35.448 211.232 35 209.654 34.104C208.096 33.1867 206.902 31.8747 206.07 30.168C205.238 28.4613 204.822 26.424 204.822 24.056C204.822 21.56 205.27 19.4053 206.166 17.592C207.062 15.7787 208.278 14.3813 209.814 13.4C211.371 12.3973 213.142 11.896 215.126 11.896ZM235.93 12.184L243.738 32.312C244.058 33.1227 244.42 33.6667 244.826 33.944C245.231 34.2 245.604 34.3387 245.946 34.36V35C245.519 34.9573 244.996 34.936 244.378 34.936C243.759 34.9147 243.14 34.904 242.522 34.904C241.69 34.904 240.911 34.9147 240.186 34.936C239.46 34.936 238.874 34.9573 238.426 35V34.36C239.514 34.3173 240.207 34.136 240.506 33.816C240.804 33.4747 240.74 32.76 240.314 31.672L234.362 15.768L234.874 15.352L229.306 29.816C228.964 30.6693 228.762 31.3947 228.698 31.992C228.634 32.568 228.687 33.0267 228.858 33.368C229.05 33.7093 229.359 33.9547 229.786 34.104C230.234 34.2533 230.788 34.3387 231.45 34.36V35C230.852 34.9573 230.223 34.936 229.562 34.936C228.922 34.9147 228.324 34.904 227.77 34.904C227.236 34.904 226.778 34.9147 226.394 34.936C226.031 34.936 225.69 34.9573 225.37 35V34.36C225.796 34.2533 226.234 34.008 226.682 33.624C227.13 33.2187 227.535 32.536 227.898 31.576L235.418 12.184C235.503 12.184 235.588 12.184 235.674 12.184C235.759 12.184 235.844 12.184 235.93 12.184ZM239.834 25.784V26.424H230.298L230.618 25.784H239.834ZM246.469 12.344C246.917 12.3653 247.504 12.3867 248.229 12.408C248.954 12.4293 249.669 12.44 250.373 12.44C251.376 12.44 252.336 12.4293 253.253 12.408C254.17 12.3867 254.821 12.376 255.205 12.376C256.933 12.376 258.362 12.6213 259.493 13.112C260.645 13.6027 261.498 14.2747 262.053 15.128C262.629 15.96 262.917 16.8987 262.917 17.944C262.917 18.584 262.789 19.2667 262.533 19.992C262.277 20.7173 261.829 21.4 261.189 22.04C260.57 22.68 259.717 23.2133 258.629 23.64C257.541 24.0453 256.165 24.248 254.501 24.248H251.429V23.608H254.181C255.696 23.608 256.848 23.3733 257.637 22.904C258.448 22.4133 258.992 21.7733 259.269 20.984C259.568 20.1733 259.717 19.2773 259.717 18.296C259.717 16.6107 259.312 15.3093 258.501 14.392C257.712 13.4533 256.346 12.984 254.405 12.984C253.424 12.984 252.784 13.1653 252.485 13.528C252.186 13.8907 252.037 14.6267 252.037 15.736V31.608C252.037 32.376 252.101 32.952 252.229 33.336C252.357 33.72 252.602 33.976 252.965 34.104C253.349 34.232 253.904 34.3173 254.629 34.36V35C254.138 34.9573 253.52 34.936 252.773 34.936C252.048 34.9147 251.312 34.904 250.565 34.904C249.733 34.904 248.954 34.9147 248.229 34.936C247.504 34.936 246.917 34.9573 246.469 35V34.36C247.194 34.3173 247.738 34.232 248.101 34.104C248.485 33.976 248.741 33.72 248.869 33.336C248.997 32.952 249.061 32.376 249.061 31.608V15.736C249.061 14.9467 248.997 14.3707 248.869 14.008C248.741 13.624 248.485 13.368 248.101 13.24C247.738 13.0907 247.194 13.0053 246.469 12.984V12.344ZM251.557 23.704C252.709 23.7467 253.616 23.8 254.277 23.864C254.938 23.9067 255.472 23.9493 255.877 23.992C256.304 24.0347 256.709 24.088 257.093 24.152C258.522 24.3867 259.546 24.824 260.165 25.464C260.805 26.0827 261.274 27.0533 261.573 28.376L262.373 31.64C262.586 32.5787 262.8 33.2613 263.013 33.688C263.248 34.0933 263.6 34.2853 264.069 34.264C264.432 34.2427 264.73 34.1253 264.965 33.912C265.221 33.6987 265.488 33.4107 265.765 33.048L266.245 33.4C265.797 34.0613 265.328 34.5733 264.837 34.936C264.368 35.2773 263.696 35.448 262.821 35.448C262.032 35.448 261.338 35.2133 260.741 34.744C260.144 34.2747 259.696 33.3573 259.397 31.992L258.693 28.792C258.501 27.8747 258.277 27.0853 258.021 26.424C257.786 25.7413 257.445 25.208 256.997 24.824C256.57 24.44 255.93 24.248 255.077 24.248H251.621L251.557 23.704ZM275.379 12.344V12.984C274.654 13.0053 274.099 13.0907 273.715 13.24C273.352 13.368 273.107 13.624 272.979 14.008C272.851 14.3707 272.787 14.9467 272.787 15.736V31.608C272.787 32.376 272.851 32.952 272.979 33.336C273.107 33.72 273.352 33.976 273.715 34.104C274.099 34.232 274.654 34.3173 275.379 34.36V35C274.888 34.9573 274.27 34.936 273.523 34.936C272.798 34.9147 272.062 34.904 271.315 34.904C270.483 34.904 269.704 34.9147 268.979 34.936C268.254 34.936 267.667 34.9573 267.219 35V34.36C267.944 34.3173 268.488 34.232 268.851 34.104C269.235 33.976 269.491 33.72 269.619 33.336C269.747 32.952 269.811 32.376 269.811 31.608V15.736C269.811 14.9467 269.747 14.3707 269.619 14.008C269.491 13.624 269.235 13.368 268.851 13.24C268.488 13.0907 267.944 13.0053 267.219 12.984V12.344C267.667 12.3653 268.254 12.3867 268.979 12.408C269.704 12.4293 270.483 12.44 271.315 12.44C272.062 12.44 272.798 12.4293 273.523 12.408C274.27 12.3867 274.888 12.3653 275.379 12.344ZM295.663 12.344C295.577 13.1547 295.513 13.944 295.471 14.712C295.449 15.4587 295.439 16.0347 295.439 16.44C295.439 16.952 295.449 17.432 295.471 17.88C295.492 18.328 295.513 18.7227 295.535 19.064H294.799C294.649 17.5707 294.447 16.3973 294.191 15.544C293.935 14.6693 293.487 14.04 292.847 13.656C292.207 13.272 291.215 13.08 289.871 13.08H288.143V31.288C288.143 32.1413 288.217 32.7813 288.367 33.208C288.537 33.6347 288.857 33.9227 289.327 34.072C289.796 34.2213 290.479 34.3173 291.375 34.36V35C290.82 34.9573 290.116 34.936 289.263 34.936C288.409 34.9147 287.545 34.904 286.671 34.904C285.711 34.904 284.804 34.9147 283.951 34.936C283.119 34.936 282.447 34.9573 281.935 35V34.36C282.831 34.3173 283.513 34.2213 283.983 34.072C284.452 33.9227 284.761 33.6347 284.911 33.208C285.081 32.7813 285.167 32.1413 285.167 31.288V13.08H283.439C282.116 13.08 281.124 13.272 280.463 13.656C279.823 14.04 279.375 14.6693 279.119 15.544C278.863 16.3973 278.66 17.5707 278.511 19.064H277.775C277.817 18.7227 277.839 18.328 277.839 17.88C277.86 17.432 277.871 16.952 277.871 16.44C277.871 16.0347 277.849 15.4587 277.807 14.712C277.785 13.944 277.732 13.1547 277.647 12.344C278.543 12.3653 279.513 12.3867 280.559 12.408C281.625 12.4293 282.692 12.44 283.759 12.44C284.825 12.44 285.796 12.44 286.671 12.44C287.545 12.44 288.505 12.44 289.551 12.44C290.617 12.44 291.684 12.4293 292.751 12.408C293.817 12.3867 294.788 12.3653 295.663 12.344ZM305.43 12.184L313.238 32.312C313.558 33.1227 313.92 33.6667 314.326 33.944C314.731 34.2 315.104 34.3387 315.446 34.36V35C315.019 34.9573 314.496 34.936 313.878 34.936C313.259 34.9147 312.64 34.904 312.022 34.904C311.19 34.904 310.411 34.9147 309.686 34.936C308.96 34.936 308.374 34.9573 307.926 35V34.36C309.014 34.3173 309.707 34.136 310.006 33.816C310.304 33.4747 310.24 32.76 309.814 31.672L303.862 15.768L304.374 15.352L298.806 29.816C298.464 30.6693 298.262 31.3947 298.198 31.992C298.134 32.568 298.187 33.0267 298.358 33.368C298.55 33.7093 298.859 33.9547 299.286 34.104C299.734 34.2533 300.288 34.3387 300.95 34.36V35C300.352 34.9573 299.723 34.936 299.062 34.936C298.422 34.9147 297.824 34.904 297.27 34.904C296.736 34.904 296.278 34.9147 295.894 34.936C295.531 34.936 295.19 34.9573 294.87 35V34.36C295.296 34.2533 295.734 34.008 296.182 33.624C296.63 33.2187 297.035 32.536 297.398 31.576L304.918 12.184C305.003 12.184 305.088 12.184 305.174 12.184C305.259 12.184 305.344 12.184 305.43 12.184ZM309.334 25.784V26.424H299.798L300.118 25.784H309.334Z" fill="#F8F9F8"/>
<defs>
<clipPath id="clip0_49_186">
<rect width="100" height="50.566" fill="white" transform="translate(0 11)"/>
</clipPath>
</defs>
</svg>
